<?xml version="1.0" encoding="utf-8"?>
<!-- Generator: Adobe Illustrator 19.1.0, SVG Export Plug-In . SVG Version: 6.00 Build 0)  -->
<svg version="1.1" id="Layer_1" xmlns="http://www.w3.org/2000/svg" xmlns:xlink="http://www.w3.org/1999/xlink" x="0px" y="0px"
	 viewBox="0 0 100 100.5" style="enable-background:new 0 0 100 100.5;" xml:space="preserve">
<style type="text/css">
	.st0{fill:#A6CE39;}
	.st1{fill:#FFFFFF;}
</style>
<g>
	<path class="st0" d="M84.6,69.8c-3.8,0-7.2,1.3-9.9,3.6l-30.2-18c0.4-1.7,0.6-3.4,0.6-5.2c0-1.7-0.2-3.4-0.6-5.1l30.1-17.9
		c2.7,2.3,6.1,3.6,9.9,3.6c8.5,0,15.4-6.9,15.4-15.4C100,6.9,93.1,0,84.6,0c-8.5,0-15.4,6.9-15.4,15.4c0,1.1,0.1,2.2,0.4,3.3
		L40.3,36.1c-4.1-5.2-10.5-8.6-17.7-8.6C10.1,27.5,0,37.7,0,50.1s10.1,22.6,22.6,22.6c7.1,0,13.5-3.3,17.6-8.4l29.4,17.5
		c-0.2,1.1-0.4,2.2-0.4,3.3c0,8.5,6.9,15.4,15.4,15.4c8.5,0,15.4-6.9,15.4-15.4C100,76.6,93.1,69.8,84.6,69.8z"/>
	<g>
		<path class="st1" d="M15.2,60.4h-2.7V41.5h2.7V50V60.4z"/>
		<path class="st1" d="M19.2,41.5h7.3c7,0,10.1,5,10.1,9.5c0,4.9-3.8,9.4-10,9.4h-7.4V41.5z M21.9,58h4.3c6.2,0,7.6-4.7,7.6-7
			c0-3.8-2.4-7-7.7-7h-4.2V58z"/>
		<path class="st1" d="M15.7,37.6c0,1-0.8,1.8-1.8,1.8c-1,0-1.8-0.8-1.8-1.8c0-1,0.8-1.8,1.8-1.8C14.9,35.8,15.7,36.6,15.7,37.6z"/>
	</g>
</g>
</svg>
