<?xml version="1.0" encoding="utf-8"?>
<!-- Generator: Adobe Illustrator 19.1.0, SVG Export Plug-In . SVG Version: 6.00 Build 0)  -->
<svg version="1.1" id="Layer_1" xmlns="http://www.w3.org/2000/svg" xmlns:xlink="http://www.w3.org/1999/xlink" x="0px" y="0px"
	 viewBox="-53 16 192 70" style="enable-background:new -53 16 192 70;" xml:space="preserve">
<style type="text/css">
	.st0{enable-background:new    ;}
	.st1{fill:#231F20;}
	.st2{fill:#FFFFFF;}
</style>
<g class="st0">
	<path class="st1" d="M19.9,24.2v9.1l0,1.1l0,0.9c0.1,0.9,0.4,1.4,1,1.5c0.4,0.1,0.7,0.2,0.9,0.2c0.2,0,0.3,0.1,0.3,0.2
		c0,0.2-0.1,0.3-0.4,0.3c-0.1,0-0.4,0-0.7,0c-0.2,0-0.6,0-1.1,0l-0.8,0l-0.9,0c-0.4,0-0.8,0-1,0c-0.3,0-0.5,0.1-0.6,0.1
		c-0.2,0-0.3-0.1-0.3-0.2c0-0.1,0.1-0.2,0.4-0.3c0.6-0.1,1-0.4,1.2-1s0.3-1.5,0.3-3v-6.6c0-1.5-0.1-2.5-0.3-2.9
		c-0.2-0.4-0.6-0.6-1.4-0.7c-0.2,0-0.3-0.1-0.3-0.2c0-0.2,0.1-0.3,0.4-0.3c0.1,0,0.3,0,0.6,0.1c0.5,0.1,0.8,0.1,1.1,0.1
		c0.5,0,1.1,0,2-0.1c0.5,0,0.8-0.1,1.1-0.1c1.5,0,2.8,0.4,3.7,1.1s1.4,1.7,1.4,2.9c0,1.4-0.6,2.6-1.7,3.4c-0.9,0.6-1.8,0.9-2.8,0.9
		c-0.5,0-0.9,0-1.3-0.1c-0.4-0.1-0.6-0.2-0.6-0.3c0-0.1,0.1-0.1,0.2-0.1c0.1,0,0.1,0,0.2,0c0.2,0.1,0.4,0.1,0.8,0.1
		c1,0,1.9-0.3,2.5-0.9c0.6-0.6,0.9-1.3,0.9-2.3c0-1.1-0.4-2-1.2-2.7c-0.8-0.7-1.9-1.1-3.1-1.1c-0.3,0-0.5,0.1-0.6,0.2
		s-0.2,0.3-0.2,0.6L19.9,24.2z"/>
	<path class="st1" d="M41.4,31.1v-5.7c0-0.9-0.1-1.6-0.4-2c-0.3-0.4-0.7-0.6-1.3-0.7c-0.2,0-0.3-0.1-0.3-0.2c0-0.2,0.1-0.2,0.2-0.2
		c0.2,0,0.4,0,0.7,0.1c0.3,0,0.6,0.1,1,0.1c0.8,0,1.3,0,1.5,0c0.3,0,0.4,0,0.5,0c0.1,0,0.2,0.1,0.2,0.2c0,0.1-0.1,0.2-0.2,0.3
		c-0.4,0.2-0.7,0.4-0.9,0.8c-0.1,0.3-0.2,0.9-0.2,1.9v5.4c0,2-0.4,3.5-1.2,4.6c-0.5,0.7-1.2,1.2-2.2,1.6s-1.9,0.6-3,0.6
		c-1.2,0-2.4-0.2-3.3-0.7s-1.7-1.1-2.2-2c-0.5-0.9-0.8-2.2-0.8-3.7v-5.5l0-0.6c0-0.8-0.1-1.3-0.3-1.6c-0.2-0.3-0.6-0.5-1.3-0.6
		c-0.2,0-0.3-0.1-0.3-0.2c0-0.2,0.1-0.3,0.4-0.3c0.2,0,0.4,0,0.8,0c0.3,0,0.6,0,0.7,0l0.8,0h0.8c0.1,0,0.3,0,0.6,0
		c0.3,0,0.5,0,0.6,0c0.2,0,0.3,0.1,0.3,0.2c0,0.1-0.1,0.2-0.3,0.3c-0.4,0.1-0.7,0.3-0.8,0.6c-0.1,0.3-0.2,0.8-0.2,1.5l0,0.7v5.5
		c0,1.9,0.3,3.2,0.9,4c0.8,1.1,2.2,1.7,4.1,1.7c1.7,0,3-0.5,3.9-1.4S41.4,33,41.4,31.1z"/>
	<path class="st1" d="M47.4,34.1v-8.4c0-1-0.1-1.7-0.4-2.1c-0.3-0.5-0.7-0.7-1.3-0.7c-0.3,0-0.4-0.1-0.4-0.2c0-0.2,0.1-0.2,0.4-0.2
		c0.1,0,0.2,0,0.6,0c0.2,0,0.5,0,0.9,0c0.5,0,1,0,1.2,0l1.2-0.1c0.4,0,0.8,0,1.1,0c1.6,0,2.9,0.3,3.8,1c0.9,0.6,1.4,1.5,1.4,2.6
		c0,1.2-0.5,2.1-1.4,2.7l-0.5,0.3c-0.1,0.1-0.2,0.1-0.2,0.2c0,0.1,0.2,0.1,0.6,0.2c0.8,0.2,1.5,0.6,2,1.3c0.5,0.7,0.8,1.5,0.8,2.4
		c0,1.3-0.5,2.4-1.5,3.3c-1,0.9-2.2,1.3-3.8,1.3l-0.8,0l-1,0l-0.9-0.1c-0.6,0-1-0.1-1.4-0.1c-0.3,0-0.6,0-0.9,0
		c-0.3,0-0.6,0.1-0.7,0.1c-0.2,0-0.3-0.1-0.3-0.2c0-0.1,0.1-0.2,0.3-0.2c0.6-0.1,1-0.4,1.1-1C47.3,35.5,47.4,34.9,47.4,34.1z
		 M49.6,29.8c-0.3,0-0.4,0-0.5,0.1c-0.1,0-0.1,0.2-0.1,0.3v5l0,0.5l0.1,0.4c0.1,0.3,0.4,0.5,0.8,0.7c0.4,0.1,1.1,0.2,2,0.2
		c1.1,0,2-0.3,2.7-0.9c0.6-0.6,1-1.4,1-2.5c0-1.1-0.3-2-1-2.7c-0.7-0.7-1.6-1.1-2.6-1.1H49.6z M49.8,29h1.8c1.8,0,2.7-0.8,2.7-2.5
		c0-1-0.4-1.9-1.2-2.6c-0.8-0.7-1.7-1-2.9-1c-0.5,0-0.8,0.1-1,0.2C49.1,23.3,49,23.6,49,24v4.4c0,0.3,0,0.4,0.1,0.5S49.4,29,49.8,29
		z"/>
	<path class="st1" d="M62.5,34.5l0,0.4c0,0.9,0.1,1.4,0.3,1.6c0.2,0.2,0.7,0.2,1.6,0.2c1.4,0,2.5-0.2,3.5-0.5c1-0.3,1.6-0.8,1.9-1.3
		c0.1-0.2,0.2-0.3,0.3-0.3c0.1,0,0.2,0.1,0.2,0.2c0,0.5-0.3,1-0.7,1.6c-0.6,0.8-1.6,1.2-3.1,1.2c-0.2,0-0.5,0-0.8,0l-1.2-0.1
		c-0.7-0.1-1.4-0.1-2.2-0.1c-0.9,0-1.6,0-2.3,0.1c-0.3,0-0.5,0.1-0.6,0.1c-0.2,0-0.3-0.1-0.3-0.2c0-0.1,0.1-0.2,0.3-0.3
		c0.5-0.2,0.8-0.4,1-0.7c0.2-0.3,0.3-0.8,0.3-1.5l0-0.5v-9.8c0-1-0.4-1.5-1.2-1.7l-0.5-0.1c-0.2,0-0.3-0.1-0.3-0.2
		c0-0.2,0.1-0.2,0.4-0.2c0.2,0,0.4,0,0.7,0c0.5,0,1,0.1,1.7,0.1c0.7,0,1.3,0,1.8-0.1c0.3,0,0.4,0,0.5,0c0.2,0,0.3,0.1,0.3,0.2
		c0,0.2-0.1,0.3-0.3,0.3L63.5,23c-0.7,0.2-1,0.8-1,2V34.5z"/>
	<path class="st1" d="M74.7,25.7v8.2c0,1,0.1,1.7,0.2,2c0.1,0.4,0.3,0.6,0.5,0.8s0.6,0.3,1,0.3c0.4,0.1,0.5,0.1,0.5,0.3
		c0,0.2-0.1,0.3-0.3,0.3c-0.1,0-0.2,0-0.4,0c-0.2,0-0.6,0-1.2,0l-1.6,0l-1.3,0.1c-0.2,0-0.4,0-0.5,0c-0.2,0-0.3-0.1-0.3-0.2
		c0-0.1,0.1-0.2,0.3-0.2c0.6-0.1,0.9-0.3,1.1-0.6s0.2-0.9,0.2-1.8v-9.4c0-0.9-0.1-1.5-0.3-1.8s-0.6-0.5-1.3-0.6
		c-0.2,0-0.3-0.1-0.3-0.3c0-0.2,0.1-0.2,0.3-0.2c0.1,0,0.1,0,0.2,0c0.5,0.1,1.2,0.1,2.1,0.1c0.5,0,1,0,1.4,0l0.7-0.1
		c0.1,0,0.2,0,0.3,0c0.2,0,0.3,0.1,0.3,0.2c0,0.1-0.1,0.2-0.3,0.3l-0.6,0.2C75,23.3,74.7,24.1,74.7,25.7z"/>
	<path class="st1" d="M83.2,22.2c0.8,0,1.4,0.1,2,0.3l0.8,0.3c0.1,0,0.1,0,0.2,0c0.1,0,0.2,0,0.3-0.1l0.2-0.1c0,0,0.1,0,0.1,0
		c0.2,0,0.3,0.2,0.3,0.5c0,0.1,0,0.5,0.1,1.1l0.2,1.1c0,0.2,0.1,0.4,0.1,0.4c0,0.2-0.1,0.3-0.2,0.3c-0.1,0-0.2-0.2-0.4-0.5
		c-0.3-0.8-0.8-1.4-1.6-2c-0.8-0.5-1.7-0.8-2.7-0.8c-0.8,0-1.4,0.2-2,0.7c-0.5,0.5-0.8,1-0.8,1.7c0,0.6,0.2,1.1,0.5,1.6
		c0.3,0.4,0.6,0.7,1,0.8c0.4,0.2,1.2,0.5,2.6,1c2.7,0.9,4,2.3,4,4.3c0,1.4-0.5,2.5-1.5,3.3s-2.3,1.3-3.8,1.3c-0.6,0-1.2-0.1-1.9-0.2
		c-0.7-0.2-1.2-0.3-1.5-0.6c-0.1-0.1-0.2-0.2-0.3-0.3c0-0.1-0.1-0.4-0.2-0.8c0-0.1-0.1-0.4-0.3-1c-0.2-0.7-0.3-1.1-0.3-1.4
		c0-0.2,0.1-0.3,0.2-0.3c0.1,0,0.3,0.2,0.4,0.5c0.3,0.9,0.8,1.7,1.7,2.3s1.8,0.9,2.7,0.9c1,0,1.8-0.3,2.5-0.9c0.7-0.6,1-1.3,1-2.2
		c0-0.8-0.3-1.5-1-2c-0.3-0.3-1.3-0.7-2.8-1.2c-1.6-0.5-2.8-1.1-3.4-1.8s-1-1.5-1-2.6c0-1.2,0.4-2.1,1.3-2.9S81.9,22.2,83.2,22.2z"
		/>
	<path class="st1" d="M94.2,29.3h6.4c0.3,0,0.5,0,0.6-0.1c0.1-0.1,0.1-0.2,0.1-0.4V25c0-0.8-0.1-1.3-0.3-1.6
		c-0.2-0.3-0.5-0.5-1.1-0.6c-0.2,0-0.3-0.1-0.3-0.3c0-0.1,0.1-0.2,0.3-0.2c0.2,0,0.4,0,0.7,0.1c0.5,0.1,1,0.1,1.5,0.1
		c0.8,0,1.3,0,1.6-0.1c0.2,0,0.3,0,0.4,0c0.2,0,0.3,0.1,0.3,0.2c0,0.1-0.1,0.2-0.3,0.2l-0.4,0.1c-0.2,0-0.4,0.2-0.6,0.5
		c-0.2,0.3-0.2,0.6-0.2,1v10.6c0,0.8,0.1,1.3,0.3,1.6c0.2,0.3,0.6,0.5,1.3,0.5c0.2,0,0.3,0.1,0.3,0.2c0,0.2-0.1,0.3-0.3,0.3
		c-0.1,0-0.3,0-0.6-0.1c-0.2,0-0.5,0-1.1,0l-0.8,0l-0.8,0c-0.1,0-0.3,0-0.5,0c-0.5,0-0.7,0.1-0.8,0.1c-0.2,0-0.3-0.1-0.3-0.2
		c0-0.1,0.1-0.2,0.4-0.2c0.8-0.1,1.1-0.8,1.1-1.9l0-0.4v-4c0-0.3,0-0.5-0.1-0.6c-0.1-0.1-0.3-0.1-0.7-0.1h-6.4c-0.4,0-0.7,0-0.8,0.1
		c-0.1,0.1-0.2,0.3-0.2,0.6v4c0,0.8,0.1,1.3,0.4,1.6S94.3,37,95,37c0.3,0,0.4,0.1,0.4,0.3c0,0.1-0.1,0.2-0.3,0.2c-0.1,0-0.3,0-0.5,0
		c-0.2,0-0.6,0-1.3,0l-0.9,0l-0.7,0c-0.2,0-0.4,0-0.7,0c-0.4,0-0.6,0-0.7,0c-0.2,0-0.3-0.1-0.3-0.2c0-0.1,0.1-0.2,0.3-0.3l0.5-0.1
		c0.3-0.1,0.5-0.3,0.7-0.7c0.1-0.4,0.2-1.1,0.2-2.1v-9.4c0-0.6-0.1-1.1-0.4-1.4c-0.2-0.3-0.7-0.5-1.3-0.6c-0.2,0-0.3-0.1-0.3-0.2
		c0-0.1,0.1-0.2,0.3-0.2c0.1,0,0.4,0,0.7,0.1c0.6,0.1,1.2,0.1,2,0.1c0.5,0,1,0,1.5-0.1c0.2,0,0.3,0,0.5,0c0.2,0,0.3,0.1,0.3,0.2
		c0,0.1-0.1,0.2-0.3,0.2c-0.5,0.1-0.8,0.3-1,0.5c-0.2,0.2-0.3,0.6-0.3,1.2v3.9c0,0.4,0,0.7,0.1,0.7C93.5,29.2,93.7,29.3,94.2,29.3z"
		/>
	<path class="st1" d="M110.4,24.2v4.4c0,0.3,0,0.5,0.1,0.6c0.1,0.1,0.2,0.1,0.6,0.1h1.7c0.8,0,1.4,0,1.8-0.1
		c0.4-0.1,0.6-0.2,0.8-0.3c0.1-0.1,0.2-0.4,0.3-0.9c0-0.2,0.1-0.3,0.3-0.3c0.1,0,0.2,0.1,0.2,0.3c0,0.1,0,0.1,0,0.2
		c-0.1,0.7-0.1,1.3-0.1,1.9c0,0.4,0,0.9,0.1,1.3c0,0.1,0,0.3,0,0.3c0,0.2-0.1,0.3-0.2,0.3c-0.2,0-0.2-0.1-0.3-0.2l-0.1-0.3
		c-0.1-0.5-0.3-0.8-0.5-1s-0.7-0.3-1.3-0.3h-2.4c-0.4,0-0.6,0-0.7,0.1c-0.1,0.1-0.2,0.2-0.2,0.4l0,0.4v4c0,0.6,0.1,1,0.3,1.2
		s0.8,0.2,1.7,0.2c2.9,0,4.7-0.6,5.5-1.9c0.1-0.1,0.2-0.2,0.2-0.2c0.1,0,0.2,0.1,0.2,0.3c0,0.5-0.3,1-0.8,1.7
		c-0.6,0.8-1.4,1.2-2.4,1.2c-0.2,0-0.5,0-0.9,0c-1.4-0.1-2.5-0.2-3.5-0.2c-1.3,0-2.2,0-2.7,0.1c-0.3,0.1-0.5,0.1-0.6,0.1
		c-0.2,0-0.3-0.1-0.3-0.2c0-0.1,0.1-0.2,0.3-0.3l0.4-0.1c0.5-0.1,0.8-0.7,0.8-1.5l0-0.7v-9.2c0-1-0.1-1.7-0.3-2.1
		c-0.2-0.4-0.7-0.5-1.3-0.5c-0.2,0-0.3-0.1-0.3-0.2c0-0.2,0.2-0.3,0.5-0.3c0.2,0,0.4,0,0.7,0.1c1,0.1,2.3,0.2,3.8,0.2
		c0.9,0,1.7,0,2.4,0l1.6-0.1c0.4,0,0.7,0,0.8,0c0.2,0,0.3,0,0.4,0c0.2,0,0.4,0.1,0.4,0.3c0,0.1,0,0.1,0,0.3c0,0.1-0.1,0.4-0.1,0.9
		l0,0.6c0,0.4-0.1,0.7-0.1,0.8c0,0.1-0.1,0.2-0.2,0.2c-0.1,0-0.2-0.1-0.2-0.3v-0.3c0-0.2,0-0.5-0.1-0.7c-0.1-0.3-0.4-0.5-0.8-0.7
		c-0.4-0.1-1.2-0.2-2.3-0.2h-1.7c-0.5,0-0.7,0.1-0.9,0.2S110.4,23.8,110.4,24.2z"/>
	<path class="st1" d="M127.4,29.9l3,4.4l0.3,0.5c0.9,1.4,1.8,2.1,2.6,2.1l0.3,0c0.1,0,0.2,0.1,0.2,0.2c0,0.1-0.2,0.2-0.5,0.3
		c-0.3,0.1-0.7,0.1-1.1,0.1c-0.7,0-1.2-0.2-1.8-0.5s-1.1-0.9-1.6-1.8l-2.7-4.1l-0.2-0.2c-0.2-0.3-0.5-0.4-0.9-0.4h-1.5l-0.2,0
		c-0.1,0.1-0.1,0.2-0.1,0.4v3.4l0,0.4c0,0.6,0,1.1,0.1,1.3c0.1,0.2,0.2,0.4,0.4,0.6c0.3,0.2,0.8,0.4,1.5,0.5c0.3,0,0.4,0.1,0.4,0.2
		c0,0.1-0.1,0.2-0.4,0.2c-0.1,0-0.3,0-0.6,0c-0.3,0-0.8,0-1.4,0l-1,0l-0.6,0c-0.2,0-0.5,0-0.9,0.1c-0.3,0-0.5,0-0.6,0
		c-0.2,0-0.3-0.1-0.3-0.2c0-0.1,0.1-0.2,0.3-0.2c0.6-0.1,1-0.4,1.1-0.8c0.2-0.4,0.3-1.2,0.3-2.5V26l0-1.1c0-1.1-0.4-1.8-1.2-1.9
		l-0.5-0.1c-0.2,0-0.3-0.1-0.3-0.3c0-0.1,0.1-0.2,0.4-0.2c0.1,0,0.3,0,0.8,0c0.3,0,0.6,0,1,0c0.3,0,0.9,0,1.7-0.1
		c0.6,0,1.1-0.1,1.5-0.1c1.7,0,2.9,0.3,3.8,0.9c0.9,0.6,1.3,1.6,1.3,2.8C130.1,27.8,129.2,29,127.4,29.9z M124.2,29.7h1.2
		c1,0,1.7-0.3,2.3-0.8c0.5-0.5,0.8-1.2,0.8-2.2c0-1.1-0.4-1.9-1.1-2.6s-1.7-1-2.8-1c-0.4,0-0.7,0.1-0.9,0.2
		c-0.2,0.1-0.2,0.4-0.2,0.8l0,0.4v4.4c0,0.3,0,0.6,0.1,0.7C123.7,29.6,123.9,29.7,124.2,29.7z"/>
</g>
<path id="path9119_2_" class="st1" d="M-48.8,20.5V21v61.4v0.5h0.5H8.1h0.5v-0.5V21v-0.5H8.1h-56.4H-48.8z M-47.4,21.5h55v60.4
	h-55.4V66.5c0-20.3,0.2-42.5,0.4-43.9V21.5z M-46.7,22.2l-0.2,10.2C-47.2,44.2-47.3,81-47,81.3c0.1,0.2,2.2,0.2,9.9,0.1
	c10.7-0.1,18.6-0.2,19-0.4c0.1,0,0.5-0.3,0.7-0.6l0.4-0.5l-0.6,0.1c-0.8,0.1-1-0.1-0.5-0.6c1.4-1.1,1.6-1.3,1.6-1.7
	c0-0.4-0.1-0.5-1-0.7c-0.6-0.1-1.1-0.3-1.2-0.3c-0.4-0.3,0-0.5,0.9-0.5h0.9l-0.6-0.5c-0.7-0.6-2-1.4-2.1-1.4s-0.5-0.2-1-0.4
	c-0.5-0.2-1.6-0.6-2.4-0.8c-1.9-0.4-3.3-1.2-4.4-2.4c-0.7-0.8-1-1.6-0.8-2.1c0-0.1,0.2,0,0.4,0.4c1,1.8,3,3.1,5,3.4
	c1.6,0.2,3.7,1.2,5.3,2.3c0.8,0.5,1.7,1.2,2,1.4c0.3,0.2,1.1,0.6,1.6,0.8l1,0.3l0.8-0.4c1.7-0.7,2.4-1.9,2.2-3.4
	c-0.1-1.1,0-1.3,0.6-1c0.3,0.1,0.4,0.4,0.4,0.8c0,0.3,0.1,0.6,0.2,0.6c0.1,0,0.2-0.1,0.2-0.1c0-0.7,3.5-3.1,4.4-3.1
	c0.4,0,0.1,0.4-0.6,0.7c-0.8,0.4-4,3.4-3.7,3.5c0.2,0.1,1.6-0.8,2.3-1.4c0.4-0.3,0.8-0.3,0.8,0.1s-1.8,1.7-3.3,2.5
	c-1.3,0.7-1.4,0.7-0.8,0.7c1.5,0,4.6-1.1,5.4-1.9c0.8-0.9,1.7-2.8,1.8-4.3c0.2-1.3,0.4-2.1,0.7-2.1s0.6,0.3,0.5,0.7
	c-0.1,0.3,0,0.3,0.2,0.3s0.3-0.1,0.3-0.3c0-0.2,0.1-0.6,0.2-0.9c0.1-0.3,0.3-1,0.4-1.4c0.1-1,0.3-1.2,0.8-0.9
	C1.1,66,1.3,66.1,1.3,66c0.4-0.4,1.2-2.4,1.2-2.8c0-0.7,0.2-0.8,0.5-0.6c0.1,0.1,0.2,0.5,0.2,1c0,1,0.4,1.4,0.7,0.7
	c0.4-1,0.9-4.4,0.9-5.9c0-1.1,0.3-1.4,0.4-0.4c0.1,0.4,0.1,0.8,0.2,1.1c0,0.2,0,1.2-0.1,2.2C5,64.2,5,64.6,5.5,64.8
	C6,65,6,65.3,5.6,67.6c-0.3,2.1-0.3,1.9,0.1,2.1c0.6,0.2,0.6,1,0.1,1.6s-0.5,0.8-0.3,0.9c0.1,0.1,0.2,0.2,0.2,0.4
	c0,0.4-0.7,0.4-1.2,0c-0.3-0.3-0.5-0.3-0.9-0.1c-0.7,0.3-0.7,0,0-0.8c1.2-1.3,0.9-1.6-0.3-0.3c-0.8,0.8-1.7,1.5-2.1,1.5
	c-0.2,0,0.7-2,1.2-2.5c0.3-0.3,0.4-0.6,0.4-1.1c0-0.4,0.1-0.8,0.2-0.8c0.2-0.1,0.5-1.3,0.5-1.9c0-0.2,0.1-0.5,0.2-0.6
	c0.1-0.2,0.1-0.3,0-0.3c-0.3,0-0.5,0.4-0.8,1.8C2.5,69,2.3,69.8,2,70.1c-0.2,0.3-0.5,0.1-0.3-0.3c0.1-0.2,0.2-0.7,0.3-1.2
	s0.2-1,0.3-1.2c0.1-0.1,0.1-0.3-0.1-0.6l-0.3-0.4l-0.2,0.4c-0.1,0.2-0.1,0.6-0.1,0.8c0.1,0.5-0.7,3.7-1.3,4.9c-0.3,0.6-0.6,1-0.8,1
	s-0.2-0.1-0.2-0.3c0.1-0.2,0.2-0.7,0.3-1.1s0.3-0.8,0.3-0.8c0.2,0,0.2-1,0-1.1s-0.2,0-0.5,1.2c-0.2,1.1-0.6,1.9-1.1,2.7
	c-0.4,0.6-0.4,0.7-0.1,0.8c0.4,0.3,0.2,0.9-0.4,1.2c-0.6,0.3-0.8,0.8-0.3,1.2c0.5,0.4,0.4,0.8-0.1,1.1c-0.6,0.4-4.3,0.8-6.1,0.8
	c-1.5,0-3.5-0.5-3.4-0.8c0-0.1,0.3-0.2,0.5-0.2c1.1,0.1,3.8-0.3,4.5-0.5c1.7-0.7,2.9-1.3,2.9-1.5s-0.2-0.2-1,0.3
	c-0.4,0.2-0.9,0.4-1.1,0.4s-0.6,0.1-1,0.2s-1.7,0.3-2.9,0.4s-2.4,0.2-2.7,0.3c-0.3,0.1-0.6,0.1-0.7,0s-0.5-0.2-0.8-0.3
	c-0.7-0.1-0.7,0-0.3,1c0.3,0.7,0.3,1.3,0.2,1.3s-0.3-0.1-0.6-0.3c-0.5-0.3-0.4-0.3-1.2,0.6l-0.8,0.8h2c1.8,0,2.1,0,2.4-0.3
	c0.3-0.3,0.3-0.3,0-0.8c-0.2-0.2-0.5-0.5-0.7-0.5c-0.3-0.1-1-1.2-0.8-1.4c0.2-0.2,1,0.2,1.7,0.8c0.7,0.7,0.7,0.8,0.6,1.4v1.1
	l7.8,0.1c4.3,0,8.5,0,9.2,0l1.4-0.1h0.2v-1.8v-0.6v-1.2v-0.5v-1v-0.6v-1.7v-0.6v-0.3v-0.5v-2.1v-1.1v-0.7v-3.7v-0.1v-4.2v-0.4v-2.5
	v-4c0-0.1,0-0.1,0-0.2v-2.8l0,0c-0.1-5-0.1-21.9,0.2-23.8v-0.9c-0.1-0.3-0.1-0.7,0-1.4C7,23.3,7,22.6,6.8,22.4c0,0-0.6-0.1-1.4-0.1
	h-52.1C-46.7,22.3-46.7,22.2-46.7,22.2z M-34.4,23.3c0.1,0,0.2,0.1,0.4,0.4c1,1.2,1.3,1.9,1.3,3.1c0,2.2-0.3,4.2-0.9,5.1l-0.4,0.5
	l0.4,0.2c0.3,0.1,0.5,0.1,0.9-0.1c0.7-0.3,1.4-2.2,1.1-3c-0.2-0.6-0.2-0.7,0.7-0.8c0.6-0.1,0.8,0,2.3,1.2c1.6,1.3,1.6,1.3,2.1,1.1
	c1.2-0.6,3.9-1.6,4.9-1.7c0.6-0.1,2-0.1,3.1-0.1c7.6,0.1,13.2,3,18,9.1c1.5,2,3.3,6.3,3.7,8.9c0.1,0.7,0.1,0.7-0.3,0.9
	c-1.1,0.4-1.7,1.7-1.7,3.5c0,1.3,0.5,2.2,1.5,2.9L3.4,55l-0.3,0.4c-0.2,0.4-0.3,0.7-0.3,0.8c0,0.2-1.1,2.5-1.4,2.9
	c-2.7,4.1-4.2,5.7-7.6,7.9c-1,0.7-3,1.6-3.4,1.6c-0.1,0-0.4,0.1-0.5,0.2c-0.1,0.2-0.5,0.4-0.8,0.4c-0.3,0.1-1.3,0.3-2.2,0.4
	c-0.9,0.2-2.1,0.4-2.7,0.4c-0.6,0.1-1.5,0.2-1.9,0.3c-1.9,0.5-6.9-0.9-10.4-2.8c-0.6-0.3-1.2-0.6-1.3-0.6c-0.3,0.1-0.2,3,0.2,4.9
	c0.2,1,0.6,2.3,0.9,2.9c0.5,1.1,0.8,1.3,2.1,1.3s1.9-0.2,2.8-1.1c0.7-0.6,1-0.8,1.4-0.8c0.7,0,1,0.6,0.7,1.5
	c-0.3,0.8-0.9,1.2-2.3,1.6s-3.1,0.3-4.5-0.2c-1.1-0.4-1.4-0.4-2.5,0.2c-1.2,0.6-1.3,0.5-1.1-1.2c0.1-1.2,0.1-1.4-0.3-2.1
	c-0.7-1.3-1-1.5-1.9-1.3c-1.4,0.4-2,1.7-1.7,4c0.1,1,0.1,1.1-0.4,1.3c-0.4,0.2-0.5,0.2-0.7,0c-0.4-0.5-1-0.7-2.5-0.6
	c-1.9,0.1-2.8-0.2-3.6-1c-0.6-0.5-0.7-0.7-0.7-1.4c0-0.9,0.1-1,0.7-1.4c0.8-0.5,1-0.5,1.6,0c0.5,0.4,0.5,0.5,0.5,1.7
	c0,1.5,0.1,1.6,1.2,1.3c1.2-0.3,1.4-0.8,1.8-3.2c0.2-1.2,0.4-2.6,0.5-3.1c0.2-0.9,0.4-3.3,0.7-7.1c0.2-3.8,0.2-6.3,0-7.2
	c-0.7-2.7-1.1-2.7-2.4-0.2c-0.3,0.6-0.6,1.1-0.7,1.2c-0.2,0,0-1.3,0.4-2.1c0.1-0.4,0.2-0.7,0.2-0.8c-0.1-0.3-1.2,0.4-1.7,1
	s-0.5,0.6-0.3,1.9c0.2,1.5,0.6,2,1.7,2.2c0.4,0.1,0.8,0.1,1,0.2c0.5,0.2-0.4,0.5-1.5,0.6c-0.9,0.1-1.1,0.1-1.1,0.4
	c0,0.3,0.1,0.4,0.6,0.6c0.5,0.2,0.6,0.3,0.6,0.6s-0.1,0.4-0.3,0.3c-0.8-0.3-0.9-0.3-1,0.3c-0.1,0.5,0,0.7,0.2,0.9
	c0.4,0.3,1.1,2.1,1,2.2c-0.2,0.2-0.8-0.5-0.9-1.1c-0.2-0.7-0.4-0.7-0.5,0.1c-0.1,1.7-0.9,3.4-2.2,4.8c-0.6,0.6-0.8,1.5-0.7,2.7
	c0,0.4-0.1,1.5-0.2,2.4c-0.3,1.6-0.2,1.8,0,2.9c0.2,0.6,0.4,1.3,0.5,1.5c0.4,0.5,1.5,0.8,2.1,0.6c0.4-0.2,0.6-0.1,1.2,0.2
	c0.9,0.5,2,0.4,2.9-0.1c0.4-0.2,0.8-0.4,0.9-0.3c0.1,0,1.3,0.1,2.9,0.1c2.5,0,2.9,0.1,4.4,0.5c1.8,0.5,4.1,0.7,5.4,0.3
	c0.4-0.1,0.8-0.2,0.9-0.1c0.2,0.2-0.5,0.6-1.4,0.8c-0.9,0.2-2.7,0.2-3.4,0.1c-0.2,0-1.1-0.3-1.9-0.5c-1.4-0.4-1.9-0.4-4.3-0.4
	c-2,0-2.8,0.1-3.2,0.3c-0.9,0.4-2.3,0.5-3,0.2c-0.4-0.2-0.9-0.3-1.7-0.3c-0.6,0-1.3-0.1-1.5-0.2c-0.5-0.2-1-1.1-1.4-2.6
	c-0.3-0.9-0.3-1.1-0.1-1.9c0.1-0.6,0.2-1.8,0.2-3.1c0-1.9,0-2.3,0.2-2.5s0.3-0.5,0.3-0.7s0.2-0.8,0.5-1.4c0.4-0.8,0.5-1.3,0.5-2.1
	c0-1,0-1-0.4-0.7c-0.2,0.2-0.4,0.3-0.5,0.2s0-0.5,0.7-2.3c0.2-0.6,0.5-1.9,0.7-2.8c0.2-2,0.8-3.6,1.6-4.8c1-1.5,3-2.2,4.3-1.6
	c0.6,0.3,0.6,0.4,0.7,1.2c0.1,0.5,0.2,0.9,0.3,0.9c0.3,0,0-12.7-0.3-15.9c-0.4-3.8-1.5-6.8-2.6-7.6c-0.7-0.5-1.1-0.4-1.2,0.3
	c-0.2,0.8-1.4,1.6-2.2,1.4c-0.9-0.2-1.2-0.5-1.4-1.2c-0.2-0.6-0.2-0.8,0.1-1.6c0.2-0.5,0.5-1.1,0.7-1.3c0.4-0.4,0.6-0.4,1.6-0.4
	c0.7,0,1.5,0.2,2,0.4c0.6,0.2,1.2,0.4,1.7,0.4c0.7,0,0.9-0.1,1.3-0.6c0.5-0.6,1-0.8,1.3-0.4c0.1,0.1-0.1,0.3-0.3,0.4
	c-0.3,0.2-0.4,0.4-0.4,1.2c0,0.7,0.1,0.9,0.2,0.9c0.1,0,0.4,0.2,0.7,0.4c0.2,0.2,0.5,0.4,0.5,0.4c0.2,0,0.8-2,1-3.3
	c0.1-1.1,0.1-1.1-0.4-1.6c-0.6-0.6-1.6-1-2.4-1c-0.6,0-0.6,0-0.6-0.4c0.1-0.6,0.8-0.8,1.7-0.4c0.4,0.2,0.8,0.5,1,0.6
	c0.3,0.3,0.8,0.4,0.8,0.2c0-0.2-1.3-1.1-2.1-1.3c-0.4-0.1-1-0.2-1.3-0.2c-0.8,0-2.7,0.4-3.7,0.9c-1.2,0.4-3.7,0.6-4.1,0.4
	c-0.3-0.2-0.1-1.4,0.2-1.4c0.1,0,0.5,0.2,0.9,0.3c0.5,0.2,0.9,0.3,1.3,0.3c0.9-0.1,2.3-0.8,2.4-1.1c0.1-0.2,0.4-0.2,1.1-0.2
	c0.6,0,1.1-0.1,1.4-0.2c0.4-0.2,0.6-0.2,1.6,0.4c1.2,0.6,1.4,0.6,0.9-0.1c-0.2-0.2-0.2-0.5-0.2-0.7C-34.5,23.3-34.5,23.3-34.4,23.3z
	 M-1.7,25.4c0.1,0,0.3,0.3,0.4,0.7c0.5,1.3,1.4,2.2,1.2,1.2c-0.1-0.3,0-0.6,0.1-0.7c0.2-0.2,0.2-0.2,0.3,0c0.1,0.1,0.2,0.4,0.2,0.5
	c0,0.5,1,1.8,1.6,2.1c0.3,0.1,1,0.4,1.5,0.5c1.1,0.3,1.5,0.6,1.2,1.1c-0.2,0.4-0.1,0.5,0.7,0.9C6.1,32,6.3,32.6,6,33
	c-0.3,0.4-0.6,0.3-1.4-0.4c-0.4-0.3-0.8-0.6-0.9-0.5c-0.1,0,0.5,0.7,1.3,1.5c1.1,1,1.5,1.5,1.4,1.7s-0.2,0.2-0.6,0
	C5.6,35.1,5.3,35,5.3,35c-0.1,0,0,1.9,0.2,2.2c0.3,0.5,0.3,5.7,0,6.6c-0.3,1-0.5,0.8-0.5-0.4c0-0.6-0.2-2-0.5-3.1
	c-0.3-1.1-0.5-2.2-0.6-2.5c0-0.3-0.1-0.5-0.2-0.5c-0.1,0-0.2,0.1-0.2,1.1c0,0.7-0.4,1.2-0.7,0.8c-0.2-0.3-0.2-1,0-1.7
	c0.3-0.8,0-1-0.7-0.6c-0.3,0.1-0.6,0.3-0.7,0.3c-0.3,0-0.2-0.7,0.1-1.1c0.1-0.2,0.3-0.5,0.3-0.6c0-0.2,0.1-0.5,0.3-0.7
	c0.2-0.3,0.2-0.5,0.1-0.8C2,33.6,2,33.6,1.8,33.9c-0.1,0.2-0.1,0.5-0.1,0.7c0,0.3-0.5,0.8-0.9,0.8c-0.7,0-1-1.3-0.5-1.9
	c0.2-0.2,0.3-0.6,0.4-1.1c0-0.7,0.1-0.7,0.5-0.8c0.7-0.1,0.9-0.3,0.6-0.7c-0.1-0.2-0.3-0.4-0.6-0.3c-0.3,0-0.6-0.2-1.2-0.8
	c-0.5-0.6-1.2-1-2.2-1.5c-1.4-0.7-1.4-0.7-1.6-1.5c-0.1-0.5-0.1-0.9-0.1-0.9c0.2-0.1,0.8,0.5,1.1,1.2c0.3,0.6,0.5,0.8,0.9,0.8
	c0.3,0,0.4-0.5,0.1-0.8C-2,26.5-2,25.4-1.7,25.4z M5.5,25.5c0.5,0,0.7,0.4,0.4,0.8c-0.3,0.3-0.8,0.3-1,0C4.8,25.8,5,25.5,5.5,25.5z
	 M-37.7,25.7c0.8,0,0.6,0.2-0.7,0.7c-1.5,0.5-2.2,0.6-2.2,0.2s0.4-0.6,1.8-0.8C-38.3,25.7-37.9,25.7-37.7,25.7z M-14.1,25.8
	c0.6,0,0.9,0.1,1.4,0.3c1,0.5,2.2,0.5,4.2,0.1c0.8-0.2,2-0.3,2.5-0.2c0.9,0,1.1,0.1,1.1,0.4s-0.2,0.3-1.4,0.4C-7,26.9-7.7,27-7.8,27
	c-0.4,0.3-0.1,0.4,1.2,0.5c1.6,0.1,3.6,0.6,4.9,1.2c1.5,0.7,1.8,1.4,1,2.2c-0.5,0.5-0.7,0.5-1.3-0.1c-0.4-0.4-0.6-0.5-1.7-0.5
	c-0.7,0-1.4,0-1.5,0.1c-0.2,0.1-0.5,0-0.9-0.4c-0.4-0.3-1.2-0.7-2-1s-1.5-0.6-1.6-0.7s-0.6-0.2-1.1-0.3s-1.4-0.4-2.2-0.7
	c-2.1-0.9-2.7-0.9-4.4-0.5c-1.1,0.3-2,0.4-3.3,0.4c-1.6,0-2.1-0.1-3.8-0.6c-2.2-0.6-2.5-1-0.5-0.6c4.3,0.9,5,0.9,7.4,0.2
	c0.8-0.2,2-0.5,2.7-0.6C-14.5,25.8-14.3,25.8-14.1,25.8z M2.8,26.2c0.1,0,0.3,0,0.6,0.2c1.5,0.7,2.1,1.6,1.4,2.2
	c-0.4,0.4-1.7,0.4-2.4,0c-1-0.5-1-1.6,0-2.2C2.5,26.3,2.7,26.2,2.8,26.2z M-20.1,31.2c-1,0-2,0.1-2.6,0.3c-1.4,0.4-4,1.9-4.8,2.8
	c-1.2,1.3-1.9,2.8-2.4,5.1c-0.4,1.9-0.4,2.5-0.4,6.2c0,2.3-0.1,6.8-0.2,10l-0.2,5.9l0.8,1.1c1.4,2,4.1,3.8,7.4,5
	c0.8,0.3,1.4,0.4,2.6,0.4c1.4,0,3.8-0.3,4.7-0.7c1.4-0.6,3.3-1.5,4.2-2.1c1.5-1,4.2-3.7,4.2-4.3c0-0.1,0.1-0.2,0.3-0.3
	c0.1-0.1,0.3-0.2,0.3-0.3S-6.1,60-6,60c0.2-0.1,1.6-2.8,1.6-3.2c0-0.2,0.1-0.4,0.1-0.5c0.4-0.4,1.1-4.6,1.1-6.3
	c0-2.2-0.4-4.9-0.8-6.3c-0.6-1.9-1-3.1-1.2-3.3c-0.1-0.1-0.4-0.6-0.6-1c-0.2-0.5-0.6-1-0.8-1.1c-0.2-0.2-0.3-0.4-0.3-0.5
	c0-0.2-3.5-3.8-3.7-3.8c-0.1,0-0.4-0.2-0.7-0.4c-1-0.7-3.3-1.8-4.7-2.2C-17.3,31.4-18.8,31.2-20.1,31.2z M2.4,31.6
	c-0.2,0-0.3,0.1-0.3,0.2c0,0.1,0.1,0.2,0.3,0.2c0.1,0,0.3,0.1,0.3,0.3S3,33.2,3.4,34s0.8,1.6,0.9,1.9c0.3,0.7,0.4,0.7,0.3,0
	c-0.1-0.4,0-0.6,0.2-0.7C5.1,35,5,34.7,4.5,34.7c-0.2,0-0.5-0.4-0.8-1.1c-0.2-0.6-0.4-1.1-0.4-1.2C3.3,32.1,2.7,31.6,2.4,31.6z
	 M-20.8,34.2c0.7,0,1.2,0.1,2.3,0.5c1.4,0.5,3.8,0.9,5.2,0.9c0.7,0,2.2,1.8,1.7,2c-0.1,0-0.3,0.2-0.5,0.3c-0.3,0.2-0.3,0.3,0.2,0.2
	c0.4-0.1,0.5,0,0.7,0.4c0.1,0.3,0.4,0.6,0.8,0.8c1.4,0.6,3.2,1.8,3.7,2.5c1,1.2,1.6,3.1,1.1,3.1c-0.1,0-0.2-0.1-0.2-0.2
	c0-0.1-0.1-0.3-0.1-0.3c-0.1,0-0.3-0.3-0.4-0.7C-6.5,43.1-8.4,41-8.7,41c-0.1,0-0.5-0.2-1-0.5s-0.9-0.5-1-0.4s0.2,0.4,2,1.8
	c1,0.8,1.6,1.6,1.4,1.8c-0.1,0.1-6.4-0.2-7-0.3c-1.2-0.2-2.2-1.3-3.3-3.5c-0.7-1.4-2-2.5-3.1-2.8c-0.5-0.1-1-0.3-1.2-0.4
	c-0.3-0.1-0.4-0.1-0.9,0.4c-0.8,0.7-1.1,1.4-1.1,2.5c0,1.7,0.6,2.9,1.7,3.6c1,0.6,4.8,1.8,9.4,3c1,0.3,3.1,1.3,3.4,1.7
	c0.2,0.2,0.4,0.4,0.5,0.5c0.5,0.3,1.2,1.7,1.5,2.9c0.3,1.7,0.1,3.4-0.6,4.9c-0.7,1.4-2.4,3.3-3.5,3.7c-0.9,0.3-3.5,0.4-6.8,0.2
	c-2.6-0.2-3.1,0-3.8,1.5c-0.5,0.9-0.5,1-0.3,1.4c0.3,0.6,1.8,1.2,3.4,1.5c0.9,0.1,1.4,0.3,1.6,0.5c0.5,0.5,0.1,0.7-1.1,0.4
	c-1-0.3-1.2-0.2-0.6,0.3c0.2,0.2,0.3,0.4,0.3,0.5c-0.2,0.2-0.9,0.2-1.1-0.1c-0.1-0.1-0.6-0.5-1.1-0.8c-1-0.6-1-0.5-0.6,1
	c0.1,0.5,0.3,1,0.3,1.1s-0.2,0.1-0.3,0.1c-0.3,0-0.5-0.3-0.8-1.8c-0.1-0.4-0.2-0.6-0.5-0.6c-0.2,0-0.3,0.1-0.3,0.2s-0.2,0-0.5-0.3
	c-0.4-0.4-0.5-0.6-0.6-1.7c-0.2-1.9,0.4-3.6,1.7-5.4c0.2-0.3,0.4-0.7,0.4-0.7c0-0.2-1.1,0.7-2.4,1.9c-1,0.9-1.3,0.9-1.2,0.2
	c0-0.4,0.2-0.8,1-1.6c0.5-0.5,1-1,1-1.1c0,0-0.2-0.1-0.4-0.1s-0.8,0.4-1.4,1c-1.1,1.1-1.3,1.2-1.4,0.8c-0.2-0.5-0.1-0.7,0.5-1.5
	c0.7-0.9,0.7-0.9,0.3-1c-0.2-0.1-0.5,0.1-0.8,0.4c-0.6,0.6-0.7,0.6-1,0.3c-0.2-0.2-0.2-0.4,0-0.8c0.2-0.6,0-1-0.4-0.9
	c-0.5,0.2-0.2-0.5,0.3-0.8s0.5-0.4,0.4-0.9s0-0.8,0.8-1.8c0.9-1.3,1-1.4,0.8-1.4s-1.8,1.5-2.4,2.3c-1,1.3-1,0.5,0-0.9
	c1.3-1.7,2.7-2.5,6.5-3.4c1.5-0.4,2.7-0.7,2.7-0.7c0-0.1-0.5-0.3-1.1-0.5c-1.6-0.5-3.2-1.3-4.2-2.1c-0.7-0.5-1.1-1-1.6-2
	c-0.9-1.8-1-2.5-0.4-4.1c0.6-1.5,1.1-2.3,2-3c1.1-0.8,1.8-1,3.4-1.1C-21.2,34.2-21,34.2-20.8,34.2z M-38.6,35.9c0.3,0,0.6,0,0.8,0.1
	c0.5,0.2,0.3,0.4-0.2,0.4c-1.4,0-2.5,2.1-2.5,4.9c0,0.8,0,0.9,0.8,1.6l0.8,0.7l-0.5,0.1c-0.3,0.1-0.5,0.2-0.5,0.5
	c0,0.5,0.4,1.4,0.8,1.7c0.2,0.1,0.3,0.4,0.3,0.7s-0.1,0.4-0.3,0.3c-0.3-0.1-0.3,0.1-0.4,1.7c-0.1,2.1-0.4,2.9-1.5,4
	c-0.6,0.6-0.7,0.6-1.6,0.6c-1.1,0-1.4-0.1-1.7-1c-0.2-0.6-0.2-0.7,0.2-1c0.3-0.2,0.6-0.3,0.9-0.2s0.6,0,0.8-0.2
	c0.4-0.4,1.1-2.5,1.1-3.5c0-0.7,0-0.8-0.3-0.7c-0.6,0.3-0.8,0.2-0.8-0.3c0.2-0.8,0.1-4.2-0.1-4.3c-0.1,0-0.3,0.3-0.4,0.7
	s-0.3,0.9-0.5,1s-0.5,0.7-0.7,1.2c-0.3,0.5-0.5,0.9-0.6,0.9c-0.3,0-0.2-0.3,0.2-1c0.2-0.3,0.4-1.3,0.5-2c0.5-3,1.2-4.6,2.6-5.9
	C-40.7,36.3-39.5,35.9-38.6,35.9z M-13.7,36.3c-0.1,0-0.2,0.1-0.3,0.2c-0.1,0.3,0,0.8,0.3,1s0.7,0.2,1.1-0.1
	c0.3-0.2,0.3-0.3-0.1-0.7c-0.3-0.3-0.6-0.4-0.8-0.4C-13.6,36.3-13.7,36.3-13.7,36.3z M-40.9,38.1c-0.1,0-0.2,0.2-0.3,0.7
	c-0.2,0.7-0.2,3-0.1,3.6c0.1,0.2,0.2,0.4,0.2,0.4c0.2,0,0.3-0.4,0.1-1s-0.1-1.1,0.1-2.8C-40.8,38.4-40.8,38.1-40.9,38.1z
	 M-40.8,43.8c-0.1,0-0.1,0.1-0.1,0.3c0.7,2.2,0.7,4.6,0,6.2c-0.4,1.1-0.5,1.2-1.2,1.5c-0.4,0.2-0.8,0.3-1,0.3
	c-0.1,0-0.2,0.1-0.1,0.2c0.4,0.6,1.7-0.2,2.4-1.3c0.7-1.2,0.9-2.5,0.6-4.7C-40.4,44.3-40.5,43.8-40.8,43.8z M-17.2,46.7
	c-0.1,0,0,0.1,0.2,0.3s0.6,0.5,1,0.7c0.7,0.4,1.1,1,1.2,2.2c0.1,0.5,0.2,0.9,0.2,0.9c0.3,0,0.4-0.6,0.2-1.5c-0.1-0.8-0.2-1-0.8-1.5
	c-0.8-0.7-0.9-0.8-1.6-1C-17,46.8-17.1,46.7-17.2,46.7z M-24.1,50.1c-0.4,0-0.3,0.2,0.3,0.3c0.2,0,0.7,0.1,1.1,0.1
	c1,0,0.4-0.2-1-0.3C-23.8,50.1-24,50-24.1,50.1z M-25.3,51C-25.3,51-25.3,51.1-25.3,51c0.1,0.2,0.7,0.3,1.3,0.4
	c1.5,0.3,1.8,0.3,1.8,0.1c0-0.1-0.5-0.2-1.2-0.3S-24.8,51-25,51C-25.1,51-25.2,51-25.3,51z M-14.7,51.2c-0.1,0-0.3,0.2-0.6,0.5
	c-1.5,1.6-4.2,2.6-6.6,2.6c-0.8,0-1.1,0-0.9,0.2c0.4,0.3,2.3,0.2,3.6-0.2c2-0.5,3.7-1.4,4.2-2.2C-14.6,51.5-14.5,51.1-14.7,51.2z
	 M-26.4,52c-0.4,0,0.2,0.3,1.4,0.5c1.5,0.3,2.5,0.4,2.5,0.2c0-0.1-1.4-0.4-3.4-0.7C-26.2,52.1-26.3,52-26.4,52z M-9.7,52.1
	C-9.7,52.2-9.8,52.2-9.7,52.1c-0.1,0.1,0,0.3,0.2,0.4c0.7,0.5,1,0.4,0.3-0.2C-9.4,52.2-9.6,52.1-9.7,52.1z M-10.1,52.9
	c-0.5,0-0.3,0.3,0.7,1c0.5,0.4,0.9,0.7,1,0.7c0,0-0.3-0.4-0.7-0.9C-9.6,53.3-10,52.9-10.1,52.9z M-10.9,53.6c-0.3,0-0.2,0.3,0.3,0.6
	c0.3,0.1,0.5,0.2,0.5,0.2s0-0.2-0.1-0.4s-0.3-0.4-0.5-0.4C-10.8,53.6-10.9,53.6-10.9,53.6z M-9.6,54.8c0,0-0.1,0.1,0,0.2
	c0.1,0.1,0.2,0.2,0.3,0.2s0.1-0.1,0.1-0.2C-9.3,54.9-9.4,54.8-9.6,54.8L-9.6,54.8z M-11.6,55.1c-0.3,0-0.2,0.5,0.1,0.6
	c0.2,0.1,0.6,0.5,0.9,0.9s0.6,0.7,0.7,0.6c0-0.1,0-0.3-0.1-0.4C-10.2,56.3-11.5,55.1-11.6,55.1z M-9.7,55.8c-0.1,0-0.1,0.1,0,0.2
	c0.1,0.1,0.3,0.2,0.3,0.2C-9.3,56.1-9.5,55.8-9.7,55.8z M-12.7,57c-0.1,0,0.1,0.3,0.3,0.6c0.3,0.4,0.5,0.7,0.6,0.6
	C-11.7,58.2-12.4,57.1-12.7,57L-12.7,57z M-11.5,57.1c0,0-0.1,0,0,0.2c0.1,0.1,0.3,0.3,0.4,0.5c0.4,0.5,0.6,0.4,0.3-0.1
	C-11.1,57.3-11.4,57.1-11.5,57.1z M-13.5,57.2c-0.2,0-0.1,0.3,0.3,0.8c0.6,1,0.8,1.1,0.8,0.4c0-0.3-0.1-0.6-0.5-0.9
	C-13.2,57.3-13.4,57.2-13.5,57.2z M-14.3,57.4L-14.3,57.4c-0.1,0.1,0.3,1.5,0.5,1.7c0.2,0.3,0.3,0.1,0.2-0.7c0-0.5-0.2-0.8-0.4-1
	C-14.1,57.4-14.2,57.4-14.3,57.4z M-41.8,57.8C-41.8,57.8-41.9,57.8-41.8,57.8c-0.3,0.2-0.4,2.2-0.3,2.6c0.1,0.2,0.2-0.2,0.3-1.1
	C-41.7,58.3-41.7,57.8-41.8,57.8z M-15.7,57.8C-15.7,57.8-15.7,57.9-15.7,57.8c-0.1,0.1,0,0.3,0,0.7c0.2,0.6,0.5,0.8,0.5,0.2
	C-15.1,58.4-15.5,57.8-15.7,57.8z M-17.4,57.9c-0.1,0.1-0.2,0.3,0,0.6c0.2,0.5,0.5,0.5,0.6,0c0.1-0.2,0-0.4-0.1-0.5
	C-17.1,57.9-17.2,57.9-17.4,57.9C-17.3,57.9-17.4,57.9-17.4,57.9z M-17.9,58.4c-0.1,0-0.2,0.1-0.2,0.2c0,0.1,0.1,0.2,0.2,0.2
	s0.2-0.1,0.2-0.2C-17.8,58.4-17.8,58.4-17.9,58.4z M-16.4,58.4c-0.2,0-0.2,0.2,0,0.4s0.4,0.1,0.3-0.2
	C-16.2,58.5-16.3,58.4-16.4,58.4z M-9.8,59.4c0.3,0,0.6,0.2,0.9,0.5c0.8,0.8,0.7,1.1-0.2,0.6c-0.4-0.2-0.8-0.4-0.8-0.4
	s-0.1,0.7-0.1,1.5c0,0.9-0.1,1.5-0.2,1.6c-0.2,0.2-0.2,0.1-0.2-0.2c0-0.6-0.4-1.7-0.6-1.7c-0.1,0-0.4,0.5-0.8,1
	c-0.9,1.2-1.2,1.3-0.8,0.3c0.3-1,0.2-1.7-0.3-1.9c-0.3-0.1-0.1-0.2,0.9-0.5c0.7-0.2,1.5-0.4,1.6-0.5C-10.1,59.5-9.9,59.4-9.8,59.4z
	 M-41.9,60.8C-41.9,60.8-42,60.8-41.9,60.8c-0.2,0.2-0.6,2.2-0.6,2.8c0,0.5,0.1,0.4,0.4-0.2C-41.8,62.8-41.7,60.9-41.9,60.8z
	 M3.4,73.3c0.1,0,0.2,0.1,0.3,0.2c0.2,0.3-0.4,1-0.8,1.1c-0.2,0-0.5,0.1-0.7,0.2c-0.5,0.2-0.3-0.4,0.3-0.9
	C2.9,73.5,3.2,73.3,3.4,73.3z M0.2,74.1c0.8,0,1.1,1.6,0.7,3.1c-0.1,0.4-0.1,0.7,0,1.1c0.3,0.6,0.1,1.2-0.5,1.5
	c-0.6,0.2-0.5,0.3-0.8,0c-0.3-0.4-0.1-1.3,0.4-1.5c0.4-0.1,0.4-0.2,0.2-0.6s-0.3-0.4-1-0.3s-0.8,0.1-0.8-0.2c0-0.5,0.4-0.7,0.9-0.7
	h0.5l-0.1-1.1C-0.1,74.3-0.1,74.1,0.2,74.1z M5.5,75c0.3,0,0.6,0.1,0.6,0.2s0.1,0.1,0.1,0.2v0.8c-0.1,0-0.2,0.1-0.3,0.2
	c-0.4,0.4-0.7,0.3-0.7-0.2c0-0.3-0.1-0.6-0.3-0.7c-0.1-0.1-0.2-0.3-0.2-0.4C4.9,75.1,5.2,75,5.5,75z M-3.3,75.2
	c-0.2,0-0.8,0.6-0.8,0.7s0.2,0,0.4-0.1C-3.2,75.5-3.1,75.2-3.3,75.2z M2.9,75.2c0.1,0,0.2,0.1,0.2,0.2S3,75.7,2.9,75.7
	s-0.2-0.1-0.2-0.3C2.8,75.3,2.8,75.2,2.9,75.2z M4.1,75.7L4.1,75.7c0.1,0,0,0.3-0.1,0.5c-0.2,0.5-0.4,0.6-0.6,0.3
	C3.3,76.4,3.9,75.7,4.1,75.7z M2.1,75.8c0.1,0,0.2,0.1,0.2,0.3c0,0.1-0.1,0.2-0.2,0.2c-0.1,0-0.2-0.1-0.2-0.2S2,75.8,2.1,75.8z
	 M2.6,76.6c0.1,0,0.2,0.1,0.2,0.2c0,0.3-0.5,0.4-0.6,0.1c-0.1-0.1-0.1-0.2,0-0.2C2.2,76.7,2.4,76.7,2.6,76.6
	C2.5,76.6,2.6,76.6,2.6,76.6z M3.9,76.9c0.1,0,0.1,0,0.2,0.1c0.1,0.1,0,0.2-0.1,0.2c-0.1,0.1-0.2,0-0.3-0.1
	C3.7,77.1,3.7,77,3.9,76.9C3.8,77,3.9,76.9,3.9,76.9z M1.5,77.2c0.1,0,0.2,0.1,0.2,0.2s0,0.2-0.1,0.2c0,0-0.1-0.1-0.2-0.2
	C1.4,77.3,1.4,77.2,1.5,77.2z M2.8,77.3c0.1,0,0.2,0,0.3,0.1c0.2,0.2,0.1,0.3-0.1,0.3c-0.4,0.1-0.4,0.1-0.4-0.1S2.7,77.3,2.8,77.3z
	 M5.2,77.4c0.2,0,0.4,0.1,0.7,0.2c0.2,0.1,0.3,0.2,0.4,0.2v1c-0.6,0.1-1.5,0.2-1.6,0.1C4.5,78.6,4.8,77.5,5.2,77.4
	C5.1,77.4,5.1,77.4,5.2,77.4z M1.9,77.9c0.1,0,0.2,0.1,0.2,0.2S2,78.3,1.9,78.3c-0.1,0-0.2-0.1-0.2-0.2S1.8,77.9,1.9,77.9z
	 M3.1,78.2c0.1,0,0.2,0.1,0.2,0.2s0,0.2-0.1,0.2c0,0-0.1-0.1-0.2-0.2C3,78.3,3,78.2,3.1,78.2z M3.5,79c0.2,0,0.3,0.1,0.4,0.4
	c0.1,0.4,0,0.6-0.4,0.9c-0.8,0.6-1.8,0.5-1.8-0.2c0-0.3,0.2-0.5,0.9-0.8C3,79.1,3.3,79,3.5,79z"/>
<g>
	<path id="path9119_4_" class="st1" d="M-48.8,20.3v0.5v61.4v0.5h0.5H8.1h0.5v-0.5V20.7v-0.5H8.1h-56.5L-48.8,20.3L-48.8,20.3z
		 M-47.4,21.2h55v60.4h-55.5V66.2c0-20.3,0.2-42.5,0.4-43.9L-47.4,21.2z M-46.7,22l-0.2,10.1C-47.2,43.9-47.3,80.7-47,81
		c0.1,0.2,2.1,0.2,9.9,0.1c10.7-0.1,18.6-0.2,19-0.4c0.1,0,0.5-0.3,0.7-0.6l0.4-0.5l-0.6,0.1c-0.8,0.1-1-0.1-0.5-0.6
		c1.4-1.1,1.6-1.3,1.6-1.7c0-0.4-0.1-0.5-1-0.7c-0.6-0.1-1.1-0.3-1.2-0.3c-0.4-0.3,0-0.5,0.9-0.5h0.9l-0.6-0.5
		c-0.7-0.6-2-1.4-2.1-1.4s-0.5-0.2-1-0.4c-0.5-0.2-1.6-0.6-2.4-0.8c-1.9-0.4-3.3-1.2-4.4-2.4c-0.7-0.8-1-1.6-0.8-2.1
		c0-0.1,0.2,0,0.4,0.4c1,1.8,3,3.1,5,3.4c1.6,0.2,3.7,1.2,5.3,2.3c0.8,0.5,1.7,1.2,2,1.4c0.3,0.2,1.1,0.6,1.6,0.8l1,0.3l0.8-0.4
		c1.7-0.7,2.4-1.9,2.2-3.4c-0.1-1.1,0-1.3,0.6-1c0.3,0.1,0.4,0.4,0.4,0.8c0,0.3,0.1,0.6,0.2,0.6c0.1,0,0.2-0.1,0.2-0.1
		c0-0.7,3.5-3.1,4.4-3.1c0.4,0,0.1,0.4-0.6,0.7c-0.8,0.4-4,3.4-3.7,3.5c0.2,0.1,1.6-0.8,2.3-1.4c0.4-0.3,0.8-0.3,0.8,0.1
		s-1.8,1.7-3.3,2.5c-1.3,0.7-1.4,0.7-0.8,0.7c1.5,0,4.6-1.1,5.4-1.9c0.8-0.9,1.7-2.8,1.8-4.3c0.2-1.3,0.4-2.1,0.7-2.1
		s0.6,0.3,0.5,0.7c-0.1,0.3,0,0.3,0.2,0.3s0.3-0.1,0.3-0.3c0-0.2,0.1-0.6,0.2-0.9c0.1-0.3,0.3-1,0.4-1.4c0.1-1,0.3-1.2,0.8-0.9
		c0.2,0.1,0.4,0.2,0.4,0.1c0.4-0.4,1.2-2.4,1.2-2.8c0-0.7,0.2-0.8,0.5-0.6c0.1,0.1,0.2,0.5,0.2,1c0,1,0.4,1.4,0.7,0.7
		c0.4-1,0.9-4.4,0.9-5.9c0-1.1,0.3-1.4,0.4-0.4c0.1,0.4,0.1,0.8,0.2,1.1c0,0.2,0,1.2-0.1,2.2C5,63.9,5,64.3,5.5,64.5
		C6,64.7,6,65,5.6,67.3c-0.3,2.1-0.3,1.9,0.1,2.1c0.6,0.2,0.6,1,0.1,1.6s-0.5,0.8-0.3,0.9c0.1,0.1,0.2,0.2,0.2,0.4
		c0,0.4-0.7,0.4-1.2,0C4.2,72,4,72,3.6,72.2c-0.7,0.3-0.7,0,0-0.8c1.2-1.3,0.9-1.6-0.3-0.3c-0.8,0.8-1.7,1.5-2.1,1.5
		c-0.2,0,0.7-2,1.2-2.5c0.3-0.3,0.4-0.6,0.4-1.1c0-0.4,0.1-0.8,0.2-0.8c0.2-0.1,0.5-1.3,0.5-1.9c0-0.2,0.1-0.5,0.2-0.6
		c0.1-0.2,0.1-0.3,0-0.3c-0.3,0-0.5,0.4-0.8,1.8c-0.4,1.5-0.6,2.3-0.9,2.6c-0.2,0.3-0.5,0.1-0.3-0.3c0.1-0.2,0.2-0.7,0.3-1.2
		c0.1-0.5,0.2-1,0.3-1.2c0.1-0.1,0.1-0.3-0.1-0.6l-0.3-0.4l-0.2,0.4c-0.1,0.2-0.1,0.6-0.1,0.8c0.1,0.5-0.7,3.7-1.3,4.9
		c-0.3,0.6-0.6,1-0.8,1s-0.2-0.1-0.2-0.3c0.1-0.2,0.2-0.7,0.3-1.1S-0.1,71-0.1,71c0.2,0,0.2-1,0-1.1s-0.2,0-0.5,1.2
		c-0.2,1.1-0.6,1.9-1.1,2.7c-0.4,0.6-0.4,0.7-0.1,0.8c0.4,0.3,0.2,0.9-0.4,1.2C-2.8,76.1-3,76.6-2.5,77c0.5,0.4,0.4,0.8-0.1,1.1
		c-0.6,0.3-4.3,0.6-6.1,0.6c-1.5,0-3.5-0.5-3.4-0.8c0-0.1,0.3-0.2,0.5-0.2c1.1,0.1,3.8-0.3,4.5-0.5c1.7-0.7,2.9-1.3,2.9-1.5
		s-0.2-0.2-1,0.3c-0.4,0.2-0.9,0.4-1.1,0.4s-0.6,0.1-1,0.2S-9,76.9-10.2,77s-2.4,0.2-2.7,0.3s-0.6,0.1-0.7,0s-0.5-0.2-0.8-0.3
		c-0.7-0.1-0.7,0-0.3,1c0.3,0.7,0.3,1.3,0.2,1.3s-0.3-0.1-0.6-0.3c-0.5-0.3-0.4-0.3-1.2,0.6l-0.8,0.8h2c1.8,0,2.1,0,2.4-0.3
		c0.3-0.3,0.3-0.3,0-0.8c-0.2-0.2-0.5-0.5-0.7-0.5c-0.3-0.1-1-1.2-0.8-1.4c0.2-0.2,1,0.2,1.7,0.8c0.7,0.7,0.7,0.8,0.6,1.4v1.3
		l7.8,0.1c4.3,0,8.5,0,9.2,0l1.4-0.1h0.2v-1.8v-0.6v-1.3v-0.5v-1v-0.5v-1.7V73v-0.3v-0.5v-2.1V69v-0.8v-3.7v-0.1v-4.2v-0.4v-2.6v-4
		c0-0.1,0-0.1,0-0.2v-2.8l0,0c-0.1-5-0.1-21.9,0.2-23.8v-0.9c-0.1-0.3-0.1-0.7,0-1.4C7,22.9,7,22.2,6.8,22c0,0-0.6-0.1-1.4-0.1
		L-46.7,22L-46.7,22z M-34.4,23c0.1,0,0.2,0.1,0.4,0.4c1,1.2,1.3,1.9,1.3,3.1c0,2.2-0.3,4.2-0.9,5.1l-0.4,0.5l0.4,0.2
		c0.3,0.1,0.5,0.1,0.9-0.1c0.7-0.3,1.4-2.2,1.1-3c-0.2-0.6-0.2-0.7,0.7-0.8c0.6-0.1,0.8,0,2.3,1.2c1.6,1.3,1.6,1.3,2.1,1.1
		c1.2-0.6,3.9-1.6,4.9-1.7c0.6-0.1,2-0.1,3.1-0.1c7.6,0.1,13.2,3,18,9.1c1.5,2,3.3,6.3,3.7,8.9c0.1,0.7,0.1,0.7-0.3,0.9
		c-1.1,0.4-1.7,1.7-1.7,3.5c0,1.3,0.5,2.2,1.5,2.9l0.7,0.5l-0.3,0.4c-0.2,0.4-0.3,0.7-0.3,0.8c0,0.2-1.1,2.5-1.4,2.9
		c-2.7,4.1-4.2,5.7-7.6,7.9c-1,0.7-3,1.6-3.4,1.6c-0.1,0-0.4,0.1-0.5,0.2s-0.5,0.3-0.9,0.3c-0.3,0.1-1.3,0.3-2.2,0.4
		c-0.9,0.2-2.1,0.4-2.7,0.4c-0.6,0.1-1.5,0.2-1.9,0.3c-1.9,0.5-6.9-0.9-10.4-2.8c-0.6-0.3-1.2-0.6-1.3-0.6c-0.3,0.1-0.2,3,0.2,4.9
		c0.2,1,0.6,2.3,0.9,2.9c0.5,1.1,0.8,1.3,2.1,1.3s1.9-0.2,2.8-1.1c0.7-0.6,1-0.8,1.4-0.8c0.7,0,1,0.6,0.7,1.5
		c-0.3,0.8-0.9,1.2-2.3,1.6s-3.1,0.3-4.5-0.2c-1.1-0.4-1.4-0.4-2.5,0.2c-1.2,0.6-1.3,0.5-1.1-1.2c0.1-1.2,0.1-1.4-0.3-2.1
		c-0.7-1.3-1-1.5-1.9-1.3c-1.4,0.4-2,1.7-1.7,4c0.1,1,0.1,1.1-0.4,1.3c-0.4,0.2-0.5,0.2-0.7,0c-0.4-0.5-1-0.7-2.5-0.6
		c-1.9,0.1-2.8-0.2-3.6-1c-0.6-0.5-0.7-0.7-0.7-1.4c0-0.9,0.1-1,0.7-1.4c0.8-0.5,1-0.5,1.6,0c0.5,0.4,0.5,0.5,0.5,1.7
		c0,1.5,0.1,1.6,1.2,1.3c1.2-0.3,1.4-0.8,1.8-3.2c0.2-1.2,0.4-2.6,0.5-3.1c0.2-0.9,0.4-3.3,0.7-7.1c0.2-3.8,0.2-6.3,0-7.2
		c-0.8-2.6-1.2-2.6-2.4-0.1c-0.3,0.6-0.6,1.1-0.7,1.2c-0.2,0,0-1.3,0.4-2.1c0.1-0.4,0.2-0.7,0.2-0.8c-0.1-0.3-1.2,0.4-1.7,1
		s-0.5,0.6-0.3,1.9c0.2,1.5,0.6,2,1.7,2.2c0.4,0.1,0.8,0.1,1,0.2c0.5,0.2-0.4,0.5-1.5,0.6c-0.9,0.1-1.1,0.1-1.1,0.4
		c0,0.3,0.1,0.4,0.6,0.6c0.5,0.2,0.6,0.3,0.6,0.6s-0.1,0.4-0.3,0.3c-0.8-0.3-0.9-0.3-1,0.3c-0.1,0.5,0,0.7,0.2,0.9
		c0.4,0.3,1.1,2.1,1,2.2c-0.2,0.2-0.8-0.5-0.9-1.1c-0.2-0.7-0.4-0.7-0.5,0.1c-0.1,1.7-0.9,3.4-2.2,4.8c-0.6,0.6-0.8,1.5-0.7,2.7
		c0,0.4-0.1,1.5-0.2,2.4c-0.3,1.6-0.2,1.8,0,2.9c0.2,0.6,0.4,1.3,0.5,1.5c0.4,0.5,1.5,0.8,2.1,0.6c0.4-0.2,0.6-0.1,1.2,0.2
		c0.9,0.5,2,0.4,2.9-0.1c0.4-0.2,0.8-0.4,0.9-0.3c0.1,0,1.3,0.1,2.9,0.1c2.5,0,2.9,0.1,4.4,0.5c1.8,0.5,4.1,0.7,5.4,0.3
		c0.4-0.1,0.8-0.2,0.9-0.1c0.2,0.2-0.5,0.6-1.4,0.8c-0.9,0.2-2.7,0.2-3.4,0.1c-0.2,0-1.1-0.3-1.9-0.5c-1.4-0.4-1.9-0.4-4.3-0.4
		c-2,0-2.8,0.1-3.2,0.3c-0.9,0.4-2.3,0.5-3,0.2c-0.4-0.2-0.9-0.3-1.7-0.3c-0.6,0-1.3-0.1-1.5-0.2c-0.5-0.2-1-1.1-1.4-2.6
		c-0.3-0.9-0.3-1.1-0.1-1.9c0.1-0.6,0.2-1.8,0.2-3.1c0-1.9,0-2.3,0.2-2.5s0.3-0.5,0.3-0.7s0.2-0.8,0.5-1.4c0.4-0.8,0.5-1.3,0.5-2.1
		c0-1,0-1-0.4-0.7c-0.2,0.2-0.4,0.3-0.5,0.2s0-0.5,0.7-2.3c0.2-0.6,0.5-1.9,0.7-2.8c0.2-2,0.8-3.6,1.6-4.8c1-1.5,3-2.2,4.3-1.6
		c0.6,0.3,0.6,0.4,0.7,1.2c0.1,0.5,0.2,0.9,0.3,0.9c0.3,0,0-12.7-0.3-15.9c-0.4-3.8-1.5-6.8-2.6-7.6c-0.7-0.5-1.1-0.4-1.2,0.3
		c-0.2,0.8-1.4,1.6-2.2,1.4c-0.9-0.2-1.2-0.5-1.4-1.2c-0.2-0.6-0.2-0.8,0.1-1.6c0.2-0.5,0.5-1.1,0.7-1.3c0.4-0.4,0.6-0.4,1.6-0.4
		c0.7,0,1.5,0.2,2,0.4c0.6,0.2,1.2,0.4,1.7,0.4c0.7,0,0.9-0.1,1.3-0.6c0.5-0.6,1-0.8,1.3-0.4c0.1,0.1-0.1,0.3-0.3,0.4
		c-0.5,0.2-0.6,0.4-0.6,1.1s0.1,0.9,0.2,0.9c0.1,0,0.4,0.2,0.7,0.4c0.2,0.2,0.5,0.4,0.5,0.4c0.2,0,0.8-2,1-3.3
		c0.1-1.1,0.1-1.1-0.4-1.6c-0.6-0.6-1.6-1-2.4-1c-0.6,0.2-0.6,0.2-0.6-0.2c0.1-0.6,0.8-0.8,1.7-0.4c0.4,0.2,0.8,0.5,1,0.6
		c0.3,0.3,0.8,0.4,0.8,0.2s-1.3-1.1-2.1-1.3c-0.4-0.1-1-0.2-1.3-0.2c-0.8,0-2.7,0.4-3.7,0.9c-0.8,0.4-3.4,0.6-3.7,0.4
		s-0.1-1.4,0.2-1.4c0.1,0,0.5,0.2,0.9,0.3c0.5,0.2,0.9,0.3,1.3,0.3c0.9-0.1,2.3-0.8,2.4-1.1c0.1-0.2,0.4-0.2,1.1-0.2
		c0.6,0,1.1-0.1,1.4-0.2c0.4-0.2,0.6-0.2,1.6,0.4c1.2,0.6,1.4,0.6,0.9-0.1c-0.2-0.2-0.2-0.5-0.2-0.7C-34.5,23.1-34.5,23-34.4,23z
		 M-1.7,25.1c0.1,0,0.3,0.3,0.4,0.7c0.5,1.3,1.4,2.2,1.2,1.2c-0.1-0.3,0-0.6,0.1-0.7c0.2-0.2,0.2-0.2,0.3,0c0.1,0.1,0.2,0.4,0.2,0.5
		c0,0.5,1,1.8,1.6,2.1c0.3,0.1,1,0.4,1.5,0.5c1.1,0.3,1.5,0.6,1.2,1.1c-0.2,0.4-0.1,0.5,0.7,0.9c0.6,0.3,0.8,0.9,0.5,1.3
		S5.4,33,4.6,32.3c-0.4-0.3-0.8-0.6-0.9-0.5c-0.1,0,0.5,0.7,1.3,1.5c1.1,1,1.5,1.5,1.4,1.7s-0.2,0.2-0.6,0c-0.2-0.2-0.5-0.3-0.5-0.3
		c-0.1,0,0,1.9,0.2,2.2c0.3,0.5,0.3,5.7,0,6.6c-0.3,1-0.5,0.8-0.5-0.4c0-0.6-0.2-2-0.5-3.1c-0.3-1.1-0.5-2.2-0.6-2.5
		c0-0.3-0.1-0.5-0.2-0.5s-0.2,0.1-0.2,1.1c0,0.7-0.4,1.2-0.7,0.8c-0.2-0.3-0.2-1,0-1.7c0.3-0.8,0-1-0.7-0.6
		c-0.3,0.1-0.6,0.3-0.7,0.3c-0.3,0-0.2-0.7,0.1-1.1c0.1-0.2,0.3-0.5,0.3-0.6c0-0.2,0.1-0.5,0.3-0.7c0.2-0.3,0.2-0.5,0.1-0.8
		C2,33.3,2,33.3,1.8,33.6c-0.1,0.2-0.1,0.5-0.1,0.7c0,0.3-0.5,0.8-0.9,0.8c-0.7,0-1-1.3-0.5-1.9c0.2-0.2,0.3-0.6,0.4-1.1
		c0-0.7,0.1-0.7,0.5-0.8c0.7-0.1,0.9-0.3,0.6-0.7c-0.1-0.2-0.3-0.4-0.6-0.3c-0.3,0-0.6-0.2-1.2-0.8c-0.5-0.6-1.2-1-2.2-1.5
		c-1.4-0.7-1.4-0.7-1.6-1.5c-0.1-0.5-0.1-0.9-0.1-0.9c0.2-0.1,0.8,0.5,1.1,1.2c0.3,0.6,0.5,0.8,0.9,0.8c0.3,0,0.4-0.5,0.1-0.8
		C-2,26.2-2,25.1-1.7,25.1z M5.5,25.2c0.5,0,0.7,0.4,0.4,0.8c-0.3,0.3-0.8,0.3-1,0C4.8,25.5,5,25.2,5.5,25.2z M-37.7,25.4
		c0.8,0,0.6,0.2-0.7,0.7c-1.5,0.5-2.2,0.6-2.2,0.2s0.4-0.6,1.8-0.8C-38.3,25.5-37.9,25.4-37.7,25.4z M-14.1,25.5
		c0.6,0,0.9,0.1,1.4,0.3c1,0.5,2.2,0.5,4.2,0.1c0.8-0.2,2-0.3,2.5-0.2c0.9,0,1.1,0.1,1.1,0.4s-0.2,0.3-1.4,0.4
		c-0.7,0.1-1.4,0.2-1.5,0.2c-0.4,0.3-0.1,0.4,1.2,0.5c1.6,0.1,3.6,0.6,4.9,1.2c1.5,0.7,1.8,1.4,1,2.2c-0.5,0.5-0.7,0.5-1.3-0.1
		C-2.4,30.1-2.6,30-3.7,30c-0.7,0-1.4,0-1.5,0.1c-0.2,0.1-0.5,0-0.9-0.4c-0.4-0.3-1.2-0.7-2-1s-1.5-0.6-1.6-0.7s-0.6-0.2-1.1-0.3
		s-1.4-0.4-2.2-0.7c-2.1-0.9-2.7-0.9-4.4-0.5c-1.1,0.3-2,0.4-3.3,0.4c-1.6,0-2.1-0.1-3.8-0.6c-2.2-0.6-2.5-1-0.5-0.6
		c4.3,0.9,5,0.9,7.4,0.2c0.8-0.2,2-0.5,2.7-0.6C-14.5,25.6-14.3,25.5-14.1,25.5z M2.8,25.9c0.1,0,0.3,0,0.6,0.2
		c1.5,0.7,2.1,1.6,1.4,2.2c-0.4,0.4-1.7,0.4-2.4,0c-1-0.5-1-1.6,0-2.2C2.5,26,2.7,25.9,2.8,25.9z M-20.1,31c-1,0-2,0.1-2.6,0.3
		c-1.4,0.4-4,1.9-4.8,2.8c-1.2,1.3-1.9,2.8-2.4,5.1c-0.4,1.9-0.4,2.5-0.4,6.2c0,2.3-0.1,6.8-0.2,10l-0.2,5.9l0.8,1.1
		c1.4,2,4.1,3.8,7.4,5c0.8,0.3,1.4,0.4,2.6,0.4c1.4,0,3.8-0.3,4.7-0.7c1.4-0.6,3.3-1.5,4.2-2.1c1.5-1,4.2-3.7,4.2-4.3
		c0-0.1,0.1-0.2,0.3-0.3c0.1-0.1,0.3-0.2,0.3-0.3s0.1-0.3,0.2-0.3c0.2-0.1,1.6-2.8,1.6-3.2c0-0.2,0.1-0.4,0.1-0.5
		c0.4-0.4,1.1-4.6,1.1-6.3c0-2.2-0.4-4.9-0.8-6.3c-0.6-1.9-1-3.1-1.2-3.3c-0.1-0.1-0.4-0.6-0.6-1c-0.2-0.5-0.6-1-0.8-1.1
		c-0.2-0.2-0.3-0.4-0.3-0.5c0-0.2-3.5-3.8-3.7-3.8c-0.1,0-0.4-0.2-0.7-0.4c-1-0.7-3.3-1.8-4.7-2.2C-17.3,31.1-18.8,31-20.1,31z
		 M2.4,31.4c-0.2,0-0.3,0.1-0.3,0.2c0,0.1,0.1,0.2,0.3,0.2c0.1,0,0.3,0.1,0.3,0.3S3,33,3.4,33.8s0.8,1.6,0.9,1.9
		c0.3,0.7,0.4,0.7,0.3,0c-0.1-0.4,0-0.6,0.2-0.7c0.3-0.2,0.2-0.5-0.3-0.5c-0.2,0-0.5-0.4-0.8-1.1c-0.2-0.6-0.4-1.1-0.4-1.2
		C3.3,31.8,2.7,31.4,2.4,31.4z M-38.6,35.6c0.3,0,0.6,0,0.8,0.1c0.5,0.2,0.3,0.4-0.2,0.4c-1.4,0-2.5,2.1-2.5,4.9
		c0,0.8,0,0.9,0.8,1.6l0.8,0.7l-0.5,0.1c-0.3,0.1-0.5,0.2-0.5,0.5c0,0.5,0.4,1.4,0.8,1.7c0.2,0.1,0.3,0.4,0.3,0.7s-0.1,0.4-0.3,0.3
		c-0.3-0.1-0.3,0.1-0.4,1.7c-0.1,2.1-0.4,2.9-1.5,4c-0.6,0.6-0.8,0.7-1.6,0.7c-1.1,0-1.4-0.1-1.7-1c-0.2-0.6-0.2-0.7,0.2-1
		c0.3-0.2,0.6-0.3,0.9-0.2c0.3,0.1,0.6,0,0.8-0.2c0.4-0.4,1.1-2.5,1.1-3.5c0-0.7,0-0.8-0.3-0.7c-0.6,0.3-0.8,0.2-0.8-0.3
		c0.2-0.8,0.1-4.2-0.1-4.3c-0.1,0-0.3,0.3-0.4,0.7c-0.1,0.4-0.3,0.9-0.5,1s-0.5,0.7-0.7,1.2c-0.3,0.5-0.5,0.9-0.6,0.9
		c-0.3,0-0.2-0.3,0.2-1c0.2-0.3,0.4-1.3,0.5-2c0.5-3,1.2-4.6,2.6-5.9C-40.7,36-39.5,35.6-38.6,35.6z M-41,37.9
		c-0.1,0-0.2,0.2-0.3,0.7c-0.2,0.7-0.2,3-0.1,3.6c0.1,0.2,0.2,0.4,0.2,0.4c0.2,0,0.3-0.4,0.1-1s-0.1-1.1,0.1-2.8
		C-40.8,38.1-40.8,37.8-41,37.9z M-40.8,43.5c-0.1,0-0.1,0.1-0.1,0.3c0.7,2.2,0.7,4.6,0,6.2c-0.4,1.1-0.5,1.2-1.2,1.5
		c-0.4,0.2-0.8,0.3-1,0.3c-0.1,0-0.2,0.1-0.1,0.2c0.4,0.6,1.7-0.2,2.4-1.3c0.7-1.2,0.9-2.5,0.6-4.7C-40.4,44-40.5,43.5-40.8,43.5z
		 M-41.8,57.5C-41.9,57.5-41.9,57.6-41.8,57.5c-0.3,0.2-0.4,2.2-0.3,2.6c0.1,0.2,0.2-0.2,0.3-1.1C-41.7,58-41.7,57.6-41.8,57.5z
		 M-41.9,60.6C-41.9,60.6-42,60.6-41.9,60.6c-0.2,0.2-0.6,2.2-0.6,2.8c0,0.5,0.1,0.4,0.4-0.2C-41.8,62.5-41.7,60.6-41.9,60.6z
		 M3.4,73c0.1,0,0.2,0.1,0.3,0.2c0.2,0.3-0.4,1-0.8,1.1c-0.2,0-0.5,0.1-0.7,0.2c-0.5,0.2-0.3-0.4,0.3-0.9C2.9,73.2,3.2,73,3.4,73z
		 M0.1,73.9c0.8,0,1.1,1.6,0.7,3.1c-0.1,0.4-0.1,0.7,0,1.1c0.3,0.6,0.1,1.2-0.5,1.5c-0.6,0.2-0.5,0.3-0.8,0
		c-0.3-0.4-0.1-1.3,0.4-1.5c0.4-0.1,0.4-0.2,0.2-0.6s-0.3-0.4-1-0.3s-0.8,0.1-0.8-0.2c0-0.5,0.4-0.7,0.9-0.7h0.5l-0.1-1.1
		C-0.1,74-0.1,73.9,0.1,73.9z M5.5,74.7c0.3,0,0.6,0.1,0.6,0.2s0.1,0.1,0.1,0.2V76c-0.1,0-0.2,0.1-0.3,0.2c-0.4,0.4-0.7,0.3-0.7-0.2
		c0-0.3-0.1-0.6-0.3-0.7c-0.1-0.1-0.2-0.3-0.2-0.4C4.9,74.8,5.2,74.7,5.5,74.7z M-3.3,74.9c-0.2,0-0.8,0.6-0.8,0.7s0.2,0,0.4-0.1
		C-3.2,75.2-3.1,74.9-3.3,74.9z M2.9,74.9c0.1,0,0.2,0.1,0.2,0.2S3,75.4,2.9,75.4s-0.2-0.1-0.2-0.3C2.8,75,2.8,74.9,2.9,74.9z
		 M4.1,75.4L4.1,75.4c0.1,0,0,0.3-0.1,0.5c-0.2,0.5-0.4,0.6-0.6,0.3C3.3,76.2,3.9,75.4,4.1,75.4z M2.1,75.6c0.1,0,0.2,0.1,0.2,0.3
		c0,0.1-0.1,0.2-0.2,0.2c-0.1,0-0.2-0.1-0.2-0.2C1.9,75.7,2,75.6,2.1,75.6z M2.6,76.3c0.1,0,0.2,0.1,0.2,0.2c0,0.3-0.5,0.4-0.6,0.1
		c-0.1-0.1-0.1-0.2,0-0.2C2.2,76.4,2.4,76.4,2.6,76.3C2.5,76.3,2.6,76.3,2.6,76.3z M3.9,76.7c0.1,0,0.1,0,0.2,0.1
		C4.2,76.9,4.1,77,4,77c-0.1,0.1-0.2,0-0.3-0.1C3.7,76.9,3.7,76.7,3.9,76.7C3.8,76.7,3.9,76.7,3.9,76.7z M1.5,76.9
		c0.1,0,0.2,0.1,0.2,0.2s0,0.2-0.1,0.2c0,0-0.1-0.1-0.2-0.2C1.4,77,1.4,76.9,1.5,76.9z M2.8,77c0.1,0,0.2,0,0.3,0.1
		c0.2,0.2,0.1,0.3-0.1,0.3c-0.4,0.1-0.4,0.1-0.4-0.1C2.6,77.2,2.7,77,2.8,77z M5.1,77.1c0.2,0,0.4,0.1,0.7,0.2
		c0.2,0.1,0.3,0.2,0.4,0.2v1c-0.6,0.1-1.5,0.2-1.6,0.1C4.4,78.3,4.7,77.2,5.1,77.1C5,77.1,5.1,77.1,5.1,77.1z M1.9,77.6
		c0.1,0,0.2,0.1,0.2,0.2S2,78,1.9,78c-0.1,0-0.2-0.1-0.2-0.2S1.8,77.6,1.9,77.6z M3.1,78c0.1,0,0.2,0.1,0.2,0.2s0,0.2-0.1,0.2
		c0,0-0.1-0.1-0.2-0.2C3,78,3,78,3.1,78z M3.5,78.7c0.2,0,0.3,0.1,0.4,0.4c0.1,0.4,0,0.6-0.4,0.9c-0.8,0.6-1.8,0.5-1.8-0.2
		c0-0.3,0.2-0.5,0.9-0.8C3,78.8,3.3,78.7,3.5,78.7z"/>
	<g>
		<path class="st1" d="M-16,57.4l-0.3-0.3c-0.3-0.4-0.2-0.8,0-1.3c0.1-0.3,0.1-0.5,0.1-0.6c-0.5-0.3-0.5-0.7-0.5-0.9
			c0.1-0.7,0.7-0.8,1.5-1c0.6-0.1,1-0.3,1.1-0.3c0.3-0.2,0.6-0.3,0.8-0.3l0,0c0.6,0,1.1,0.4,1.4,0.7c0.4,0.4,0.8,0.9,0.6,1.5
			c-0.1,0.3-0.5,0.5-0.8,0.5c-0.1,0-0.3,0-0.5-0.1c0,1.2-0.2,1.6-0.4,1.8c-0.1,0.1-0.3,0.3-0.7,0.3l0,0c-0.4,0-0.8-0.3-0.8-0.7l0,0
			c-0.4,0.5-0.7,0.7-1.1,0.7C-15.6,57.4-16,57.4-16,57.4z"/>
		<path class="st2" d="M-22.2,33c0.6,0,1,0.1,1.9,0.4c1.2,0.4,3.1,0.7,4.2,0.7c0.6,0,1.8,1.5,1.4,1.6c-0.1,0-0.3,0.1-0.4,0.2
			c-0.3,0.2-0.2,0.2,0.1,0.2c0.3-0.1,0.4,0,0.5,0.3c0.1,0.2,0.3,0.5,0.7,0.6c1.1,0.5,2.6,1.5,3,2c0.8,1,1.3,2.5,0.9,2.5
			c-0.1,0-0.1-0.1-0.1-0.2c0-0.1-0.1-0.2-0.1-0.2c-0.1,0-0.2-0.3-0.3-0.6c-0.2-0.5-1.7-2.2-2-2.2c-0.1,0-0.4-0.2-0.8-0.4
			s-0.8-0.4-0.8-0.3c-0.1,0.1,0.2,0.3,1.6,1.5c0.8,0.6,1.3,1.3,1.2,1.4c-0.1,0.1-5.2-0.2-5.7-0.2c-0.9-0.2-1.8-1.1-2.7-2.8
			c-0.6-1.1-1.6-2-2.5-2.3c-0.4-0.1-0.8-0.2-1-0.3s-0.4,0-0.8,0.3c-0.6,0.6-0.9,1.2-0.9,2c0,1.4,0.5,2.3,1.4,2.9
			c0.8,0.5,3.9,1.5,7.7,2.4c0.8,0.2,2.5,1,2.8,1.4c0.1,0.2,0.3,0.3,0.4,0.4c0.4,0.2,1,1.4,1.2,2.3c0.3,1.4,0.1,2.8-0.5,4
			c-0.5,1.2-2,2.7-2.8,3c-0.7,0.3-2.8,0.3-5.6,0.1c-2.2-0.1-2.5,0-3.1,1.2c-0.4,0.7-0.4,0.8-0.2,1.1c0.3,0.5,1.5,1,2.8,1.2
			c0.7,0.1,1.2,0.3,1.3,0.4c0.4,0.4,0.1,0.6-0.9,0.3c-0.9-0.2-1-0.1-0.5,0.3c0.2,0.1,0.3,0.3,0.2,0.4c-0.1,0.2-0.7,0.1-0.9-0.1
			c-0.1-0.1-0.5-0.4-0.9-0.6c-0.8-0.5-0.8-0.4-0.5,0.8c0.1,0.4,0.2,0.8,0.2,0.9c0,0.1-0.1,0.1-0.3,0.1c-0.3,0-0.4-0.3-0.6-1.5
			c-0.1-0.3-0.2-0.5-0.4-0.5s-0.3,0.1-0.3,0.2s-0.2,0-0.4-0.2c-0.4-0.3-0.4-0.5-0.5-1.4c-0.1-1.6,0.3-2.9,1.4-4.4
			c0.2-0.3,0.4-0.5,0.4-0.6s-0.9,0.5-2,1.5c-0.8,0.7-1,0.7-1,0.1c0-0.4,0.2-0.6,0.8-1.3c0.4-0.4,0.8-0.8,0.8-0.9
			c0,0-0.1-0.1-0.3-0.1s-0.7,0.3-1.2,0.8c-0.9,0.9-1,1-1.2,0.6s-0.1-0.6,0.4-1.2c0.6-0.7,0.6-0.7,0.3-0.8c-0.1-0.1-0.4,0.1-0.7,0.3
			c-0.5,0.5-0.6,0.5-0.8,0.2c-0.1-0.2-0.1-0.3,0-0.7c0.2-0.5,0-0.9-0.4-0.7c-0.4,0.1-0.2-0.4,0.2-0.6c0.4-0.2,0.4-0.3,0.3-0.7
			s0-0.6,0.6-1.5c0.7-1,0.8-1.2,0.6-1.2c-0.2,0-1.4,1.2-1.9,1.9c-0.8,1-0.8,0.4,0-0.7c1-1.4,2.2-2,5.3-2.8c1.2-0.3,2.2-0.6,2.2-0.6
			s-0.4-0.2-0.9-0.4c-1.3-0.4-2.6-1-3.4-1.7c-0.6-0.4-0.9-0.8-1.3-1.6c-0.7-1.5-0.8-2.1-0.3-3.3c0.5-1.3,0.9-1.8,1.7-2.4
			c0.9-0.6,1.4-0.8,2.8-0.9C-22.6,33-22.4,33-22.2,33z"/>
		<path class="st1" d="M-16.5,34.6c-0.1,0-0.2,0.1-0.2,0.2c-0.1,0.2,0,0.7,0.3,0.8c0.2,0.2,0.6,0.1,0.9-0.1c0.3-0.2,0.3-0.2-0.1-0.6
			c-0.2-0.2-0.5-0.3-0.7-0.3C-16.4,34.6-16.4,34.6-16.5,34.6z"/>
		<path class="st1" d="M-19.3,43.1c-0.1,0,0,0.1,0.2,0.2c0.2,0.2,0.5,0.4,0.8,0.5c0.6,0.3,0.9,0.8,1,1.8c0,0.4,0.1,0.8,0.2,0.8
			c0.2,0,0.3-0.5,0.2-1.2c-0.1-0.6-0.2-0.8-0.7-1.3c-0.7-0.6-0.7-0.7-1.3-0.8C-19.2,43.2-19.3,43.1-19.3,43.1z"/>
		<path class="st1" d="M-25,45.8c-0.3,0-0.2,0.1,0.3,0.2c0.2,0,0.6,0.1,0.9,0.1c0.8,0,0.3-0.1-0.8-0.3C-24.7,45.8-24.9,45.8-25,45.8
			z"/>
		<path class="st1" d="M-25.9,46.6L-25.9,46.6c0.1,0.1,0.5,0.3,1.1,0.3c1.2,0.2,1.5,0.2,1.5,0.1s-0.4-0.2-1-0.2
			c-0.5,0-1.1-0.1-1.3-0.2C-25.8,46.6-25.8,46.6-25.9,46.6z"/>
		<path class="st1" d="M-17.3,46.7c-0.1,0-0.3,0.1-0.5,0.4c-1.2,1.3-3.4,2.2-5.4,2.2c-0.7,0-0.9,0-0.7,0.1c0.4,0.2,1.8,0.1,2.9-0.1
			c1.6-0.4,3-1.1,3.4-1.8C-17.2,47-17.1,46.7-17.3,46.7z"/>
		<path class="st1" d="M-26.8,47.4c-0.3,0,0.2,0.2,1.1,0.4c1.2,0.3,2,0.3,2,0.1c0-0.1-1.1-0.3-2.8-0.5
			C-26.6,47.5-26.8,47.4-26.8,47.4z"/>
		<path class="st1" d="M-13.2,47.5C-13.3,47.5-13.3,47.5-13.2,47.5c-0.1,0.1,0,0.2,0.2,0.3c0.6,0.4,0.8,0.3,0.2-0.2
			C-13,47.6-13.2,47.5-13.2,47.5z"/>
		<path class="st1" d="M-13.6,48.1c-0.4,0-0.2,0.2,0.5,0.8c0.4,0.3,0.8,0.6,0.8,0.6s-0.2-0.3-0.5-0.7
			C-13.1,48.4-13.5,48.1-13.6,48.1z"/>
		<path class="st1" d="M-14.2,48.7c-0.3,0-0.2,0.2,0.2,0.5c0.2,0.1,0.4,0.2,0.4,0.2s0-0.1-0.1-0.3S-14,48.8-14.2,48.7
			C-14.1,48.7-14.2,48.7-14.2,48.7z"/>
		<path class="st1" d="M-13.1,49.7L-13.1,49.7c0,0.2,0.2,0.2,0.2,0.2l0.1-0.1C-12.9,49.7-13,49.7-13.1,49.7L-13.1,49.7z"/>
		<path class="st1" d="M-14.8,49.9c-0.2,0-0.1,0.4,0.1,0.5c0.1,0,0.5,0.4,0.7,0.7c0.3,0.4,0.5,0.6,0.6,0.5c0-0.1,0-0.2-0.1-0.3
			C-13.7,50.9-14.7,49.9-14.8,49.9z"/>
		<path class="st1" d="M-13.2,50.5c-0.1,0-0.1,0.1,0,0.2c0.1,0.1,0.2,0.2,0.2,0.2C-12.9,50.8-13.1,50.5-13.2,50.5z"/>
		<path class="st1" d="M-15.7,51.5c-0.1,0,0,0.2,0.2,0.5s0.4,0.5,0.5,0.5C-14.9,52.4-15.4,51.6-15.7,51.5
			C-15.6,51.5-15.7,51.5-15.7,51.5z"/>
		<path class="st1" d="M-14.7,51.5L-14.7,51.5c0.1,0.2,0.2,0.4,0.3,0.5c0.3,0.4,0.5,0.3,0.2-0.1C-14.4,51.7-14.6,51.5-14.7,51.5z"/>
		<path class="st1" d="M-16.3,51.6c-0.1,0-0.1,0.2,0.2,0.7c0.5,0.8,0.6,0.9,0.6,0.3c0-0.3-0.1-0.5-0.4-0.7
			C-16.1,51.7-16.2,51.6-16.3,51.6z"/>
		<path class="st1" d="M-17,51.8L-17,51.8c-0.1,0.1,0.3,1.2,0.4,1.4c0.2,0.2,0.2,0.1,0.2-0.5c0-0.4-0.1-0.7-0.3-0.8
			C-16.8,51.8-16.9,51.8-17,51.8z"/>
		<path class="st1" d="M-18.1,52.2L-18.1,52.2c-0.1,0,0,0.3,0,0.5c0.1,0.5,0.4,0.6,0.4,0.2C-17.7,52.6-18,52.1-18.1,52.2z"/>
		<path class="st1" d="M-19.5,52.2c-0.1,0-0.1,0.2,0,0.5c0.2,0.4,0.4,0.4,0.5,0c0.1-0.2,0-0.3-0.1-0.4
			C-19.2,52.2-19.3,52.2-19.5,52.2C-19.4,52.2-19.5,52.2-19.5,52.2z"/>
		<path class="st1" d="M-19.9,52.6c-0.1,0-0.2,0.1-0.2,0.1c0,0.1,0.1,0.1,0.2,0.1C-19.8,52.8-19.8,52.7-19.9,52.6L-19.9,52.6z"/>
		<path class="st1" d="M-18.7,52.6c-0.1,0-0.2,0.2,0,0.3c0.2,0.2,0.3,0.1,0.2-0.1C-18.5,52.7-18.6,52.6-18.7,52.6z"/>
		<path class="st2" d="M-13.3,53.4c0.2,0,0.5,0.1,0.8,0.4c0.7,0.7,0.6,0.9-0.2,0.5c-0.3-0.2-0.7-0.4-0.7-0.4s0,0.5,0,1.2
			c0,0.8-0.1,1.2-0.2,1.3s-0.2,0.1-0.2-0.1c0-0.5-0.3-1.4-0.5-1.4c-0.1,0-0.4,0.4-0.7,0.8c-0.7,1-0.9,1.1-0.7,0.2
			c0.2-0.8,0.1-1.4-0.3-1.6c-0.2-0.1-0.1-0.2,0.8-0.4c0.6-0.1,1.2-0.3,1.3-0.4C-13.6,53.5-13.4,53.4-13.3,53.4z"/>
	</g>
	<g>
		<path class="st1" d="M-10.6,62.2l-0.2-0.2c-0.2-0.2-0.1-0.5,0-0.8c0.1-0.2,0.1-0.3,0.1-0.4c-0.3-0.2-0.3-0.5-0.3-0.6
			c0-0.4,0.4-0.5,1-0.7c0.4-0.1,0.6-0.2,0.7-0.2c0.2-0.1,0.4-0.2,0.5-0.2l0,0c0.4,0,0.7,0.2,0.9,0.4c0.3,0.3,0.5,0.6,0.4,1
			c-0.1,0.2-0.3,0.3-0.5,0.3c-0.1,0-0.2,0-0.3-0.1c0,0.8-0.1,1-0.3,1.2C-8.7,62-8.8,62.1-9,62.1l0,0c-0.3,0-0.5-0.2-0.5-0.5l0,0
			c-0.4,0.5-0.5,0.6-0.8,0.6H-10.6z"/>
		<path class="st1" d="M-15.1,64.3c-0.6,0-0.7-0.5-0.9-1.1c-0.2,0-0.4-0.1-0.6-0.3c-0.4-0.4-0.4-0.6-0.5-1.2c0-0.5,0-1,0.1-1.5
			c-0.1,0-0.2,0.1-0.3,0.1c-0.2,0-0.3-0.1-0.4-0.2c-0.1-0.1-0.2-0.3-0.2-0.5c0,0,0,0-0.1,0c-0.2,0-0.4-0.1-0.6-0.5
			c-0.1-0.2-0.1-0.4-0.1-0.6c-0.2-0.1-0.3-0.2-0.4-0.3c-0.2-0.3-0.2-0.5-0.2-0.7c-0.2-0.1-0.3-0.2-0.3-0.4c-0.1-0.2,0-0.4,0.2-0.6
			h-0.3v-0.3c-0.1-0.1-0.2-0.4,0.4-1.3c0.7-1,1.6-1.5,3.6-2c-0.6-0.2-1.1-0.5-1.5-0.8s-0.7-0.6-1-1.2c-0.5-1.1-0.6-1.6-0.2-2.6
			c0.3-0.9,0.7-1.4,1.3-1.8c0.6-0.5,1.1-0.6,2.1-0.7c0.2,0,0.3,0,0.4,0c0.5,0,0.8,0.1,1.4,0.3c0.7,0.2,1.9,0.4,2.6,0.4
			c0.6,0,1.4,0.9,1.5,1.4c0,0.1,0,0.2,0,0.3C-9,48.3-9,48.4-9,48.4l0,0c0,0,0.1,0.1,0.2,0.1c0.7,0.3,1.8,1,2.1,1.5
			c0.3,0.4,1,1.5,0.7,2.1c-0.1,0.2-0.3,0.4-0.6,0.4s-0.5-0.2-0.6-0.5c0-0.1-0.1-0.1-0.2-0.2c-0.1,0-0.2,0-0.4,0
			c-0.6,0-3.2-0.1-3.6-0.2c-0.8-0.1-1.5-0.8-2.1-2.1c-0.3-0.6-0.8-1.1-1.3-1.2c-0.1,0-0.4-0.1-0.6-0.2c0,0,0,0-0.1,0.1
			c-0.3,0.3-0.4,0.5-0.4,0.9c0,0.9,0.4,1.3,0.7,1.4c0.4,0.2,2.2,0.8,4.8,1.5c0.5,0.1,1.8,0.7,2.1,1.1c0.1,0.1,0.1,0.1,0.2,0.1
			c0.5,0.3,0.9,1.2,1,1.9c0.2,1,0.1,2-0.3,2.9c-0.4,0.8-1.4,1.9-2.1,2.2c-0.1,0-0.5,0.2-1.9,0.2c-0.6,0-1.2,0-1.9-0.1
			c-0.3,0-0.5,0-0.6,0c-0.6,0-0.6,0.1-0.9,0.5c-0.1,0.1-0.1,0.2-0.1,0.3c0.2,0.1,0.7,0.4,1.4,0.5c0.6,0.1,1,0.2,1.2,0.4
			c0.3,0.3,0.3,0.6,0.2,0.8c-0.1,0.1-0.2,0.4-0.7,0.4c-0.1,0-0.1,0-0.2,0v0.1c-0.1,0.2-0.4,0.3-0.7,0.3c-0.2,0-0.4,0-0.6-0.2
			c0,0.1,0,0.2,0,0.2v0.2l-0.2,0.2C-14.7,64.3-15,64.3-15.1,64.3z"/>
		<path class="st2" d="M-14.6,46.4c0.4,0,0.6,0.1,1.2,0.2c0.7,0.2,2,0.5,2.7,0.5c0.4,0,1.2,1,0.9,1.1c-0.1,0-0.2,0.1-0.3,0.2
			c-0.2,0.1-0.2,0.1,0.1,0.1c0.2,0,0.3,0,0.3,0.2c0.1,0.1,0.2,0.3,0.4,0.4c0.7,0.3,1.7,1,1.9,1.3C-6.9,51-6.5,52-6.8,52
			c-0.1,0-0.1-0.1-0.1-0.1c0-0.1,0-0.1-0.1-0.2c0,0-0.1-0.2-0.2-0.4c-0.1-0.3-1.1-1.4-1.3-1.4c0,0-0.3-0.1-0.5-0.3
			c-0.3-0.2-0.5-0.3-0.5-0.2c-0.1,0.1,0.1,0.2,1,1c0.5,0.4,0.9,0.9,0.7,0.9c-0.1,0-3.4-0.1-3.7-0.2c-0.6-0.1-1.2-0.7-1.8-1.8
			c-0.4-0.7-1-1.3-1.6-1.5c-0.3-0.1-0.5-0.2-0.6-0.2c-0.1-0.1-0.2,0-0.5,0.2c-0.4,0.4-0.6,0.8-0.6,1.3c0,0.9,0.3,1.5,0.9,1.9
			c0.5,0.3,2.5,1,5,1.6c0.5,0.1,1.6,0.7,1.8,0.9c0.1,0.1,0.2,0.2,0.3,0.3c0.3,0.2,0.6,0.9,0.8,1.5c0.2,0.9,0.1,1.8-0.3,2.6
			c-0.4,0.8-1.3,1.7-1.8,1.9s-1.8,0.2-3.6,0.1c-1.4-0.1-1.6,0-2,0.8c-0.2,0.5-0.3,0.5-0.1,0.7c0.2,0.3,0.9,0.6,1.8,0.8
			c0.5,0.1,0.8,0.2,0.9,0.3c0.3,0.3,0,0.4-0.6,0.2c-0.6-0.1-0.6-0.1-0.3,0.2c0.1,0.1,0.2,0.2,0.1,0.2c-0.1,0.1-0.5,0.1-0.6-0.1
			c-0.1-0.1-0.3-0.3-0.6-0.4c-0.5-0.3-0.5-0.3-0.3,0.5c0.1,0.3,0.1,0.5,0.1,0.6c0,0-0.1,0.1-0.2,0.1c-0.2,0-0.3-0.2-0.4-1
			c0-0.2-0.1-0.3-0.2-0.3s-0.2,0.1-0.2,0.1s-0.1,0-0.3-0.1c-0.2-0.2-0.3-0.3-0.3-0.9c-0.1-1,0.2-1.9,0.9-2.9
			c0.1-0.2,0.2-0.3,0.2-0.4c0-0.1-0.6,0.4-1.3,1c-0.5,0.5-0.7,0.5-0.7,0.1c0-0.2,0.1-0.4,0.5-0.8c0.3-0.3,0.5-0.5,0.5-0.6
			c0,0-0.1,0-0.2,0s-0.4,0.2-0.7,0.5c-0.4,0.6-0.4,0.7-0.5,0.4s-0.1-0.4,0.3-0.8c0.4-0.5,0.4-0.5,0.2-0.5c-0.1,0-0.3,0-0.4,0.2
			c-0.3,0.3-0.4,0.3-0.5,0.1c-0.1-0.1-0.1-0.2,0-0.4c0.1-0.3,0-0.6-0.2-0.5c-0.3,0.1-0.1-0.2,0.1-0.4c0.3-0.1,0.3-0.2,0.2-0.5
			c0-0.3,0-0.4,0.4-1c0.5-0.7,0.5-0.7,0.4-0.7s-0.9,0.8-1.3,1.2c-0.5,0.7-0.5,0.3,0-0.5c0.7-0.9,1.4-1.3,3.4-1.8
			c0.8-0.2,1.4-0.4,1.4-0.4s-0.3-0.1-0.6-0.2c-0.9-0.3-1.7-0.7-2.2-1.1c-0.4-0.3-0.6-0.5-0.8-1c-0.5-0.9-0.5-1.3-0.2-2.1
			s0.6-1.2,1.1-1.6c0.6-0.4,0.9-0.5,1.8-0.6C-14.8,46.4-14.7,46.4-14.6,46.4z"/>
		<path class="st1" d="M-10.8,47.4C-10.9,47.4-10.9,47.5-10.8,47.4c-0.2,0.3-0.1,0.5,0.1,0.6s0.4,0.1,0.6-0.1
			c0.2-0.1,0.2-0.1-0.1-0.4C-10.5,47.5-10.6,47.4-10.8,47.4L-10.8,47.4z"/>
		<path class="st1" d="M-12.7,53c-0.1,0,0,0,0.1,0.2c0.1,0.1,0.3,0.3,0.5,0.4c0.4,0.2,0.6,0.5,0.6,1.2c0,0.3,0.1,0.5,0.1,0.5
			c0.1,0,0.2-0.3,0.1-0.8c-0.1-0.4-0.1-0.5-0.4-0.8c-0.4-0.4-0.5-0.4-0.9-0.5C-12.6,53-12.7,53-12.7,53z"/>
		<path class="st1" d="M-16.3,54.7c-0.2,0-0.2,0.1,0.2,0.2c0.1,0,0.4,0,0.6,0c0.5,0,0.2-0.1-0.5-0.2C-16.2,54.7-16.3,54.7-16.3,54.7
			z"/>
		<path class="st1" d="M-16.9,55.2C-17,55.2-17,55.2-16.9,55.2c0,0.1,0.3,0.2,0.7,0.2c0.8,0.1,0.9,0.1,0.9,0.1s-0.3-0.1-0.6-0.1
			s-0.7-0.1-0.9-0.1C-16.9,55.2-16.9,55.2-16.9,55.2z"/>
		<path class="st1" d="M-11.4,55.3c-0.1,0-0.2,0.1-0.3,0.2c-0.8,0.8-2.2,1.4-3.5,1.4c-0.4,0-0.6,0-0.5,0.1c0.2,0.1,1.2,0.1,1.9-0.1
			c1-0.3,1.9-0.7,2.2-1.1C-11.3,55.4-11.3,55.3-11.4,55.3z"/>
		<path class="st1" d="M-17.6,55.7c-0.2,0,0.1,0.2,0.7,0.3c0.8,0.2,1.3,0.2,1.3,0.1c0-0.1-0.7-0.2-1.8-0.4
			C-17.4,55.8-17.5,55.7-17.6,55.7z"/>
		<path class="st1" d="M-8.8,55.8L-8.8,55.8c-0.1,0,0,0.1,0.1,0.2c0.4,0.3,0.5,0.2,0.2-0.1C-8.6,55.8-8.7,55.8-8.8,55.8z"/>
		<path class="st1" d="M-9,56.2c-0.2,0-0.1,0.1,0.4,0.5c0.3,0.2,0.5,0.4,0.5,0.4s-0.1-0.2-0.4-0.5C-8.7,56.4-8.9,56.2-9,56.2z"/>
		<path class="st1" d="M-9.4,56.6c-0.2,0-0.1,0.2,0.1,0.3C-9.2,57-9,57-9,57s0-0.1-0.1-0.2C-9,56.7-9.2,56.6-9.4,56.6
			C-9.3,56.6-9.3,56.6-9.4,56.6z"/>
		<path class="st1" d="M-8.7,57.2L-8.7,57.2c0,0.1,0.1,0.2,0.1,0.2c0.1,0,0.1,0,0-0.1C-8.5,57.2-8.6,57.2-8.7,57.2L-8.7,57.2z"/>
		<path class="st1" d="M-9.8,57.4c-0.2,0-0.1,0.3,0.1,0.3c0.1,0,0.3,0.2,0.5,0.5c0.2,0.2,0.3,0.4,0.4,0.3c0-0.1,0-0.2,0-0.2
			C-9,58-9.7,57.4-9.8,57.4z"/>
		<path class="st1" d="M-8.8,57.7C-8.9,57.7-8.9,57.7-8.8,57.7c0.1,0.2,0.1,0.2,0.2,0.2C-8.5,57.9-8.6,57.7-8.8,57.7z"/>
		<path class="st1" d="M-10.3,58.4c0,0,0,0.2,0.2,0.3C-10,58.9-9.8,59-9.8,59S-10.2,58.4-10.3,58.4L-10.3,58.4z"/>
		<path class="st1" d="M-9.7,58.4L-9.7,58.4c0,0.1,0.1,0.3,0.2,0.4c0.2,0.2,0.3,0.2,0.1-0.1C-9.5,58.5-9.7,58.4-9.7,58.4z"/>
		<path class="st1" d="M-10.8,58.5c-0.1,0,0,0.1,0.1,0.4c0.3,0.5,0.4,0.6,0.4,0.2c0-0.2-0.1-0.3-0.2-0.5
			C-10.6,58.5-10.7,58.5-10.8,58.5z"/>
		<path class="st1" d="M-11.2,58.5L-11.2,58.5c-0.1,0,0.2,0.8,0.3,0.9c0.1,0.2,0.1,0,0.1-0.4c0-0.3-0.1-0.4-0.2-0.5
			C-11.1,58.6-11.1,58.5-11.2,58.5z"/>
		<path class="st1" d="M-11.9,58.8L-11.9,58.8c0,0,0,0.2,0,0.3c0.1,0.3,0.3,0.4,0.3,0.1C-11.6,59.1-11.8,58.8-11.9,58.8z"/>
		<path class="st1" d="M-12.8,58.8c-0.1,0-0.1,0.1,0,0.3c0.1,0.3,0.2,0.3,0.3,0c0-0.1,0-0.2-0.1-0.3C-12.6,58.8-12.7,58.8-12.8,58.8
			L-12.8,58.8z"/>
		<path class="st1" d="M-13.1,59.1C-13.1,59.1-13.2,59.1-13.1,59.1c-0.1,0.1-0.1,0.2,0,0.2S-13,59.2-13.1,59.1
			C-13,59.1-13,59.1-13.1,59.1z"/>
		<path class="st1" d="M-12.3,59.1c-0.1,0-0.1,0.1,0,0.2c0.1,0.1,0.2,0.1,0.2-0.1C-12.2,59.1-12.2,59.1-12.3,59.1z"/>
		<path class="st2" d="M-8.8,59.6c0.2,0,0.3,0.1,0.5,0.3c0.4,0.4,0.4,0.6-0.1,0.3C-8.6,60.1-8.8,60-8.8,60s0,0.4,0,0.8
			c0,0.5,0,0.8-0.1,0.9C-9,61.8-9,61.8-9,61.6c0-0.3-0.2-0.9-0.3-0.9c0,0-0.2,0.2-0.4,0.5c-0.5,0.7-0.6,0.7-0.4,0.1
			c0.2-0.5,0.1-0.9-0.2-1s-0.2-0.1,0.4-0.3c0.4-0.1,0.8-0.2,0.9-0.3C-9,59.7-8.9,59.6-8.8,59.6z"/>
	</g>
</g>
<g class="st0">
	<path class="st1" d="M25.6,49.9v19.9c0,3.3,0.2,5.5,0.7,6.6c0.5,1.3,1.7,2,3.6,2.2l1.1,0.1c0.5,0,0.7,0.3,0.7,0.8
		c0,0.5-0.3,0.7-1,0.7c-0.2,0-0.4,0-0.8-0.1c-0.6-0.1-1.1-0.1-1.7-0.1l-4.1-0.2l-1,0c-1.2,0-2.9,0.1-5.1,0.4
		c-0.7,0.1-1.3,0.1-1.7,0.1c-0.6,0-0.8-0.2-0.9-0.6c0-0.4,0.2-0.7,0.7-0.8c1.3-0.3,2.2-1,2.7-1.9c0.4-1,0.7-2.7,0.7-5.3V51.6
		c0-2-0.4-3.5-1.1-4.4c-0.8-0.9-2-1.5-3.8-1.7c-0.6-0.1-1-0.4-1-0.8c0-0.5,0.4-0.8,1.1-0.8c0.2,0,0.6,0,1.2,0.1
		c1.9,0.1,4.2,0.2,6.7,0.2c1.2,0,2.2,0,3-0.1l2.9-0.2c1-0.1,1.9-0.1,2.7-0.1c5,0,8.6,1,10.8,3.1c2,1.9,3,4.1,3,6.8
		c0,2.9-1.1,5.3-3.2,7.3c-2.1,2-4.8,3-7.9,3c-1.7,0-3.2-0.2-4.4-0.5c-1.3-0.4-1.9-0.8-1.9-1.2s0.2-0.7,0.7-0.7c0.1,0,0.2,0,0.4,0.1
		c1,0.3,1.9,0.4,2.8,0.4c2.1,0,3.8-0.7,5.2-2.1c1.4-1.4,2-3.1,2-5.3c0-2.7-0.8-4.8-2.4-6.5s-3.6-2.5-6.1-2.5c-1.9,0-3.2,0.3-3.9,0.9
		C25.9,47.2,25.6,48.3,25.6,49.9z"/>
	<path class="st1" d="M62.3,47l11.9,27.4c0.6,1.4,1.3,2.4,2.1,3.1c0.8,0.7,1.8,1.1,3.1,1.4c0.3,0.1,0.5,0.3,0.5,0.7
		c0,0.5-0.2,0.7-0.6,0.7c-0.2,0-0.6-0.1-1-0.2c-1.4-0.3-3.5-0.4-6.5-0.4c-3,0-5.1,0.1-6.2,0.4c-0.3,0.1-0.5,0.1-0.7,0.1
		c-0.5,0-0.7-0.3-0.7-0.8c0-0.2,0.2-0.4,0.6-0.6c0.8-0.2,1.5-0.7,2.1-1.3c0.6-0.6,0.8-1.3,0.8-2c0-1-0.8-3.1-2.3-6.5
		c-0.5-1-1-1.6-1.6-1.7c-0.6-0.1-2.6-0.2-6-0.2h-3.6l-2.4,0.4c-0.6,0.3-1.4,1.5-2.2,3.5l-0.8,2c-0.2,0.6-0.4,1.2-0.4,1.8
		c0,2.2,1.5,3.5,4.6,3.8c0.7,0.1,1,0.3,1,0.8c0,0.5-0.4,0.7-0.9,0.7c-0.3,0-0.8-0.1-1.3-0.2c-1.2-0.2-2.2-0.3-3.1-0.3
		c-0.8,0-2.2,0.1-4,0.3c-1.4,0.1-2.2,0.2-2.6,0.2c-0.5,0-0.7-0.2-0.7-0.6c0-0.4,0.2-0.6,0.7-0.8c0.9-0.3,1.7-0.8,2.3-1.6
		c0.6-0.8,1.4-2.5,2.5-5l7.2-16.5c0.6-1.3,1-2.2,1.2-2.7l2.4-5l1.3-2.5v0.1c0.6-1.3,0.9-2,1.1-2c0.3,0,0.8,0.7,1.4,2.2L62.3,47z
		 M63.3,63.4l-3.4-8c-0.8-1.9-1.4-2.9-1.8-2.9c-0.2,0-0.6,0.6-1.2,1.9l-0.5,1.1l-3.1,7l-0.3,0.7c-0.1,0.3-0.2,0.5-0.2,0.7
		c0,0.6,0.6,0.9,1.9,0.9h7.8c0.7,0,1-0.2,1-0.5c0-0.1,0-0.2-0.1-0.4L63.3,63.4z"/>
	<path class="st1" d="M91.7,71.8c0,3.3,0.4,5.1,1.2,5.5c0.4,0.2,1.3,0.3,2.6,0.3c5.9,0,10.1-1.7,12.6-5.2c0.8-1.1,1.2-1.6,1.4-1.6
		c0.3,0,0.5,0.4,0.5,1.1c0,2.2-0.7,4.2-2.2,6c-1.3,1.5-3,2.3-5.2,2.3c-0.5,0-1.3,0-2.5-0.1c-0.3,0-1.4-0.1-3.2-0.2L94,79.7
		c-1-0.1-2.1-0.1-3.3-0.1c-2,0-4.2,0.1-6.6,0.4c-0.7,0.1-1.2,0.1-1.4,0.1c-0.5,0-0.8-0.2-0.8-0.7c0-0.3,0.2-0.5,0.7-0.7
		c1.1-0.3,1.9-0.9,2.3-1.8c0.4-0.9,0.6-2.4,0.6-4.4V50.6c0-2.8-1.2-4.4-3.5-4.7l-1.6-0.3c-0.7-0.1-1-0.4-1-0.8
		c0-0.5,0.3-0.8,0.8-0.8c0.2,0,0.4,0,0.8,0.1c0.2,0,0.6,0.1,1,0.1l1.1,0.1c1.1,0.1,1.9,0.2,2.4,0.2c0.8,0,2.2-0.1,4-0.3
		c1.4-0.1,2.8-0.2,4.2-0.2c1.1,0,1.6,0.2,1.6,0.7c0,0.4-0.4,0.7-1.1,0.7c-1.8,0.1-2.7,1.3-2.7,3.6V71.8z"/>
	<path class="st1" d="M121.5,43.4c1.6,0,3.3,0.3,4.8,0.9l1.8,0.7c0.8,0.3,1.3,0.5,1.7,0.5c0.2,0,0.5-0.1,0.8-0.2l1-0.5
		c0.1-0.1,0.3-0.1,0.4-0.1c0.4,0,0.6,0.3,0.6,0.9l-0.1,2.1c0,0.3,0,0.6,0.1,0.9l0.3,2.6l0.3,2.4c0,0.2,0.1,0.4,0.1,0.5
		c0,0.8-0.2,1.1-0.7,1.1c-0.3,0-0.5-0.3-0.7-1c-0.5-2.4-1.8-4.6-3.8-6.3s-4.2-2.7-6.5-2.7c-1.6,0-3,0.5-4.1,1.6
		c-1.2,1.1-1.8,2.3-1.8,3.8c0,1.3,0.5,2.5,1.6,3.5c0.7,0.6,2.7,1.7,6.2,3.1c4.2,1.7,6.9,3.4,8.3,5c1.6,2,2.4,4.3,2.4,7.1
		c0,3-1.1,5.7-3.3,8c-2.2,2.3-4.8,3.4-7.7,3.4c-1.2,0-3.1-0.4-5.8-1.2c-1.2-0.4-2.1-0.7-2.7-0.8c-0.8-0.2-1.3-0.3-1.4-0.5
		c-0.1-0.1-0.2-0.6-0.3-1.4c-0.1-0.8-0.4-2-0.8-3.6c-0.7-2.4-1-3.9-1-4.6c0-0.8,0.3-1.3,0.8-1.3c0.2,0,0.4,0.2,0.5,0.6
		c0.9,3,2.3,5.5,4.5,7.6c2.1,2,4.3,3.1,6.6,3.1c1.8,0,3.4-0.7,4.7-2c1.4-1.4,2.1-2.9,2.1-4.6c0-1.4-0.4-2.5-1.1-3.4
		c-0.7-0.9-2-1.7-3.8-2.5l-4-1.8c-3.8-1.7-6.3-3.3-7.7-4.8c-1.3-1.5-2-3.5-2-6c0-2.9,0.9-5.3,2.8-7.3
		C116.4,44.4,118.7,43.4,121.5,43.4z"/>
</g>
</svg>
